<svg version="1.1" xmlns="http://www.w3.org/2000/svg" viewBox="0 0 256.83984375 597.21484375" width="256.83984375" height="597.21484375">
  <!-- svg-source:excalidraw -->
  
  <defs>
    <style>
      @font-face {
        font-family: "Virgil";
        src: url("https://excalidraw.com/Virgil.woff2");
      }
      @font-face {
        font-family: "Cascadia";
        src: url("https://excalidraw.com/Cascadia.woff2");
      }
    </style>
  </defs>
  <rect x="0" y="0" width="256.83984375" height="597.21484375" fill="#ffffff"></rect><g stroke-linecap="round" transform="translate(12.2890625 115.521484375) rotate(0 115.55002386774754 107.787109375)"><path d="M1.57 1.34 C50.79 0.83, 103.33 -1.88, 229.73 1.48 M0.22 0.8 C55 1.63, 110.45 1.11, 231 -0.61 M229.79 -1.74 C232.14 73.75, 233.89 147.04, 230.58 214.78 M231.38 -0.26 C229.3 55.03, 230.37 110.8, 230.4 215.68 M231.57 216.44 C154.65 215.96, 77.59 217.81, -1.19 216.1 M230.36 214.79 C142.7 216.56, 55.45 217.82, 0.21 214.94 M1.15 215.32 C0.01 150.12, -1.72 82.47, -0.26 -0.63 M-0.07 215.93 C-1.44 129.93, -1.76 44.97, 0.6 0.6" stroke="#000000" stroke-width="1" fill="none"></path></g><g stroke-linecap="round" transform="translate(44.04519019087911 137.02449826697125) rotate(0 84.17860748419491 85.58575221090712)"><path d="M1.58 -1.04 C44.45 -1.56, 84.36 -3.17, 170.11 -1.25 M0.94 0.18 C40.31 0.45, 80.12 -0.54, 167.64 0.39 M166.37 -0.18 C169.29 64.02, 169.55 123.81, 167.45 170.31 M168.06 -0.62 C166.65 40.53, 167.04 79.05, 168.48 171.49 M169.38 171.5 C114.63 171.57, 64.72 170.23, 0.62 172.77 M167.43 170.52 C120.44 169.76, 74.77 169.94, -0.75 171.28 M-0.29 172.15 C1.86 111.15, 1.06 52.83, -0.72 1.93 M0.41 170.94 C1.2 107.94, 1.77 46.57, 0.69 0.94" stroke="#000000" stroke-width="1" fill="none"></path></g><g stroke-linecap="round"><g transform="translate(46.56834625257011 252.52980519757443) rotate(0 24.07479548871629 -16.70534430855514)"><path d="M0.95 -0.62 C8.95 -6.65, 40.61 -29.17, 48.16 -35.08 M-0.01 1.67 C7.88 -3.65, 39.54 -27.39, 47.64 -33.54" stroke="#000000" stroke-width="1" fill="none"></path></g></g><g stroke-linecap="round"><g transform="translate(94.44112679583645 220.0423046636131) rotate(0 25.83173566549729 29.760810340165904)"><path d="M-0.62 0.8 C7.91 10.38, 43.63 48.43, 52.28 58.39 M1.25 0.18 C9.53 9.78, 42.6 49.58, 51.34 59.34" stroke="#000000" stroke-width="1" fill="none"></path></g></g><g stroke-linecap="round"><g transform="translate(128.6082430513377 251.26822716672905) rotate(0 20.892223684128794 -20.651847065649463)"><path d="M0.8 0 C7.29 -6.78, 33.02 -34.46, 39.89 -41.3 M-0.23 -1.05 C6.53 -7.65, 35.01 -33.76, 42.02 -40.28" stroke="#000000" stroke-width="1" fill="none"></path></g></g><g stroke-linecap="round"><g transform="translate(170.91216435785395 212.1891680455692) rotate(0 19.485634156428375 15.166420095601211)"><path d="M0 -1.11 C6.47 3.99, 31.82 26.31, 38.23 31.45 M-1.46 0.92 C5.44 5.64, 33.36 24.93, 40.43 29.88" stroke="#000000" stroke-width="1" fill="none"></path></g></g><g stroke-linecap="round" transform="translate(103.87683467150896 161.96492549214713) rotate(0 25.795165003470515 25.795165003470515)"><path d="M35.85 2.68 C41 4.74, 47.67 9.98, 50.13 15.1 C52.59 20.21, 52.31 28.09, 50.6 33.38 C48.89 38.67, 44.48 43.74, 39.85 46.83 C35.22 49.91, 28.09 52.33, 22.81 51.88 C17.53 51.42, 12.08 48.24, 8.17 44.1 C4.26 39.95, -0.06 32.48, -0.65 27.02 C-1.25 21.57, 1.14 15.64, 4.59 11.37 C8.04 7.1, 14.58 2.88, 20.06 1.4 C25.54 -0.08, 34.47 2.18, 37.48 2.5 C40.49 2.81, 38.39 2.79, 38.12 3.3 M22.82 0.2 C27.92 -0.77, 33.37 1.03, 38.02 3.95 C42.67 6.86, 48.52 12.42, 50.72 17.69 C52.91 22.97, 53.14 30.44, 51.17 35.61 C49.21 40.77, 44.21 46.11, 38.93 48.68 C33.64 51.25, 24.97 52.34, 19.49 51.03 C14.01 49.73, 9.23 44.96, 6.06 40.85 C2.89 36.74, 0.46 31.53, 0.47 26.38 C0.48 21.24, 2.78 14.57, 6.14 9.99 C9.49 5.41, 18.13 0.62, 20.61 -1.1 C23.09 -2.82, 20.72 -1.16, 21.01 -0.32" stroke="#000000" stroke-width="1" fill="none"></path></g><g stroke-linecap="round" transform="translate(52.037109375 54.029296875) rotate(0 96 30)"><path d="M0.73 1.49 C64.39 -0.6, 125.28 -0.38, 190.08 1.63 M-0.03 -0.65 C70.58 -0.71, 142.38 -0.33, 191.39 0.92 M190.46 1.03 C192.54 12.03, 193.38 23.79, 192.15 59.83 M191.68 0.33 C192.81 22.12, 192.21 43.26, 191.54 59.71 M192.09 58.51 C118.92 60.84, 43.8 57.51, 1.42 61.4 M191.97 60.88 C119.11 57.77, 47.36 58.08, 0.37 60.87 M-0.54 58.91 C-0.22 35.49, 0.43 14.52, 1.47 -1.29 M-0.15 60.94 C0.51 38.53, -0.01 15.88, -0.37 0.78" stroke="#000000" stroke-width="1" fill="none"></path></g><g transform="translate(57.037109375 59.029296875) rotate(0 91 25)"><text x="0" y="18" font-family="Virgil, Segoe UI Emoji" font-size="20px" fill="#000000" text-anchor="start" style="white-space: pre;" direction="ltr">accusamus </text><text x="0" y="43" font-family="Virgil, Segoe UI Emoji" font-size="20px" fill="#000000" text-anchor="start" style="white-space: pre;" direction="ltr">beatae ad facili...</text></g><g stroke-linecap="round" transform="translate(214.332368244156 19.51494501304296) rotate(0 6.586378822235872 6.586378822235929)"><path d="M4.86 1.03 C6.47 0.88, 9.45 0.32, 10.89 1.01 C12.32 1.71, 13.16 3.93, 13.48 5.18 C13.81 6.43, 13.4 7.26, 12.83 8.52 C12.25 9.79, 11.35 12.02, 10.04 12.75 C8.73 13.47, 6.58 13.22, 4.98 12.88 C3.38 12.53, 1.44 11.75, 0.45 10.68 C-0.54 9.6, -1.08 7.69, -0.98 6.41 C-0.87 5.14, -0.42 3.95, 1.09 3 C2.6 2.05, 6.92 1.12, 8.09 0.71 C9.26 0.3, 8.2 0.41, 8.1 0.54 M5.65 -1.24 C7.25 -1.57, 10.89 -0.04, 12.08 0.97 C13.26 1.98, 12.5 3.26, 12.75 4.81 C12.99 6.35, 14.38 9.1, 13.56 10.22 C12.74 11.33, 9.41 11.03, 7.84 11.49 C6.27 11.95, 5.29 13.23, 4.14 12.99 C2.99 12.75, 1.86 11.1, 0.95 10.05 C0.04 9.01, -1.39 8.17, -1.31 6.72 C-1.22 5.28, 0.27 2.41, 1.48 1.38 C2.68 0.34, 5.17 0.79, 5.91 0.52 C6.65 0.24, 5.85 -0.3, 5.89 -0.3" stroke="#000000" stroke-width="1" fill="none"></path></g><g stroke-linecap="round"><g transform="translate(224.23015966002185 31.14914539113488) rotate(0 6.1370748936929544 5.382379539961448)"><path d="M0.56 -0.32 C2.42 1.35, 9.06 8.94, 10.79 11.19 M-0.61 -1.54 C1.63 0.78, 10.56 10.15, 12.88 12.31" stroke="#000000" stroke-width="1" fill="none"></path></g></g><g stroke-linecap="round" transform="translate(10 10.4921875) rotate(0 118.419921875 22.0625)"><path d="M0.59 -0.42 C56.74 0.03, 115.75 2.32, 236.91 -0.77 M-0.44 0.17 C79.12 0.55, 158.32 0.31, 237.07 0.81 M236.01 -1.75 C235.93 16.05, 236.45 35.46, 236.89 45.87 M237.18 -0.7 C235.99 16.23, 236.35 30.13, 237.76 43.84 M236.82 42.89 C182.64 43.86, 129.55 44, 0.33 43.11 M236.08 44.88 C176.57 43.2, 116.33 42.67, -0.83 44.62 M-0.52 45.76 C-1.52 31.74, -0.64 17.51, -0.27 0.59 M-0.23 44.83 C0.75 27.19, 0.77 11.58, 0.54 -0.13" stroke="#000000" stroke-width="1" fill="none"></path></g><g transform="translate(22.705078125 21.986328125) rotate(0 57.5 12.5)"><text x="0" y="18" font-family="Virgil, Segoe UI Emoji" font-size="20px" fill="#000000" text-anchor="start" style="white-space: pre;" direction="ltr">search here</text></g><g stroke-linecap="round" transform="translate(10.263671875 55.087890625) rotate(0 21.5 29.5)"><path d="M-1.9 0.09 C9.82 -1.36, 22.05 1.77, 43.15 0.51 M0.69 -0.74 C15.72 0.26, 32.03 0.24, 42.46 -0.54 M44.8 -0.03 C42.49 14.13, 42.01 29.46, 42 60.76 M43.74 0.59 C43.91 23.66, 43.29 47.4, 43.24 59.2 M44.13 58.44 C28.18 58.58, 17.51 60.29, 1.94 59.02 M42.18 59.51 C27.73 59.54, 13.7 58.75, 0.22 59.37 M1.38 60.86 C1.34 41.62, -1.25 24.86, -1.45 1.71 M0.06 58.17 C0.15 36.89, 0.77 14.76, 0.47 -0.29" stroke="#000000" stroke-width="1" fill="none"></path></g><g transform="translate(15.263671875 72.087890625) rotate(0 16.5 12.5)"><text x="16.5" y="18" font-family="Virgil, Segoe UI Emoji" font-size="20px" fill="#000000" text-anchor="middle" style="white-space: pre;" direction="ltr">1</text></g><g stroke-linecap="round" transform="translate(13.880859375 514.748046875) rotate(0 29.5 17.5)"><path d="M-1.62 0.75 C12.15 0.03, 23.06 0.5, 57.1 -1.1 M-0.49 0.99 C11 0.21, 23.35 -0.37, 59.18 -0.2 M58.26 -0.11 C59.85 12.38, 58.55 23.67, 60.21 33.62 M59.54 -0.17 C58.76 8, 57.9 15.37, 59.75 34.76 M59.05 34.55 C37.28 36.07, 16.25 36.09, 0.64 35.63 M58.43 34.19 C37.6 34.03, 17.33 34.81, 0.55 35.29 M-1.12 34.09 C-0.09 26.46, -0.2 20.1, 0.44 -1.48 M-0.27 35.34 C0.55 21.36, 0.09 8.93, 0.3 -0.8" stroke="#000000" stroke-width="1" fill="none"></path></g><g transform="translate(18.880859375 519.748046875) rotate(0 24.5 12.5)"><text x="24.5" y="18" font-family="Virgil, Segoe UI Emoji" font-size="20px" fill="#000000" text-anchor="middle" style="white-space: pre;" direction="ltr">&lt;&lt;</text></g><g stroke-linecap="round" transform="translate(12.962890625 550.501953125) rotate(0 30 17.5)"><path d="M0.11 -0.05 C16.12 0.19, 32.38 -1.32, 58.04 1.11 M-0.91 -0.24 C13 -1.41, 27.11 -0.79, 60.11 0.96 M60.52 1.51 C59.09 11.85, 61.08 18.46, 58.35 33.48 M60.03 0.39 C59.35 10.98, 60.94 21.39, 60.55 35.85 M59.25 36.08 C41.22 35.96, 24.7 35.49, 0.92 35.55 M59.03 34.13 C42.22 34.43, 26.63 34.8, -0.99 34.37 M-0.32 33.49 C-0.22 26.25, 0.63 17.67, 1.27 -1.8 M0.23 34.08 C-0.13 20.53, 0.39 6.54, 0.16 -0.78" stroke="#000000" stroke-width="1" fill="none"></path></g><g transform="translate(17.962890625 555.501953125) rotate(0 25 12.5)"><text x="25" y="18" font-family="Virgil, Segoe UI Emoji" font-size="20px" fill="#000000" text-anchor="middle" style="white-space: pre;" direction="ltr">&lt;</text></g><g stroke-linecap="round" transform="translate(74.095703125 515.388671875) rotate(0 20.5 35.5)"><path d="M-1.03 0.42 C11.93 -1.09, 25.7 1.12, 39.49 -0.98 M-0.46 -0.82 C16.53 -0.1, 32.8 1.05, 40.83 -0.37 M40.22 1.93 C42.39 19.54, 39.53 40.31, 41.18 72.09 M40.16 0.16 C41.77 19.84, 41.57 41.01, 41 71.02 M40.19 72.09 C30.27 71.85, 19.19 71.77, -0.35 69.87 M40.18 70.92 C32.59 70.94, 22.07 70.01, -0.74 70.44 M-0.42 70.17 C0.55 51.45, 1.38 33.07, 1.9 -0.53 M-0.22 70.36 C0.13 46.47, -0.01 22.76, 0.78 0.52" stroke="#000000" stroke-width="1" fill="none"></path></g><g transform="translate(79.095703125 538.388671875) rotate(0 15.5 12.5)"><text x="15.5" y="18" font-family="Virgil, Segoe UI Emoji" font-size="20px" fill="#000000" text-anchor="middle" style="white-space: pre;" direction="ltr">1</text></g><g stroke-linecap="round" transform="translate(116.318359375 515.685546875) rotate(0 19 35.5)"><path d="M1.97 -1.81 C13.03 -0.73, 25.38 0.54, 37.59 0.21 M-0.05 0.26 C15.79 -0.25, 31.03 0.75, 37.31 -0.83 M37.66 0.05 C38.85 14.23, 38.39 33.31, 37.52 72.11 M37.77 -0.37 C38.53 26.92, 38.54 54.97, 38.31 71.46 M36.37 69.06 C23.82 69.15, 12.94 71.89, 0.58 69.02 M37.54 70.84 C28.25 70.58, 19.6 71.01, -0.74 71.63 M0.69 71.47 C-2.52 55.63, -1.95 41.76, -1.59 0.31 M0.32 70.52 C-0.22 55.02, -1.16 40.39, -0.21 0.39" stroke="#000000" stroke-width="1" fill="none"></path></g><g transform="translate(121.318359375 538.685546875) rotate(0 14 12.5)"><text x="14" y="18" font-family="Virgil, Segoe UI Emoji" font-size="20px" fill="#000000" text-anchor="middle" style="white-space: pre;" direction="ltr">2</text></g><g stroke-linecap="round" transform="translate(190.833984375 549.017578125) rotate(0 27.5 17.5)"><path d="M-1.64 0.36 C11.11 0.47, 24.95 -0.08, 54.26 -0.11 M0.96 0.6 C17.24 -0.61, 35.09 0.31, 55.54 -0.17 M55.33 1.49 C54.65 11.7, 56.83 21.18, 55.05 34.55 M55.55 0.32 C55.5 9.65, 55.46 18.21, 54.43 34.19 M54.83 36.11 C44.42 32.57, 31.41 33.08, -1.12 34.09 M54.59 35.22 C38.63 35.52, 22.84 35.84, -0.27 35.34 M-1.27 35.59 C-1.27 23.99, -1.23 13.92, 1.05 0.64 M-0.61 35.95 C-0.33 26.56, -0.96 17.59, -0.85 -0.78" stroke="#000000" stroke-width="1" fill="none"></path></g><g transform="translate(195.833984375 554.017578125) rotate(0 22.5 12.5)"><text x="22.5" y="18" font-family="Virgil, Segoe UI Emoji" font-size="20px" fill="#000000" text-anchor="middle" style="white-space: pre;" direction="ltr">&gt;</text></g><g stroke-linecap="round" transform="translate(191.509765625 515.587890625) rotate(0 27 17.5)"><path d="M-0.41 0.21 C15.63 -0.43, 26.69 -0.21, 54.52 1.51 M-0.69 -0.83 C13.33 -0.24, 28.73 -0.5, 54.03 0.39 M53.52 1.11 C55.75 7.56, 54.1 14.69, 53.25 36.08 M54.31 0.46 C54.47 8.91, 53.63 17.36, 53.03 34.13 M54.58 33.02 C40.95 33.83, 29.32 34.39, -0.32 33.49 M53.26 35.63 C38.04 36.07, 23.61 35.46, 0.23 34.08 M-1.59 35.31 C-1.33 26.84, 1.27 16.22, -0.95 0.66 M-0.21 35.39 C-0.63 25.44, -0.64 14.58, -0.92 -0.7" stroke="#000000" stroke-width="1" fill="none"></path></g><g transform="translate(196.509765625 520.587890625) rotate(0 22 12.5)"><text x="22" y="18" font-family="Virgil, Segoe UI Emoji" font-size="20px" fill="#000000" text-anchor="middle" style="white-space: pre;" direction="ltr">&gt;&gt;</text></g><g stroke-linecap="round" transform="translate(152.669921875 514.357421875) rotate(0 19 35.5)"><path d="M-0.71 0.71 C8.94 0.28, 19.31 0.57, 39.75 -1.35 M0.67 0.65 C10.14 -0.53, 19.42 0.2, 37.06 0.48 M38.63 -0.38 C38.88 19.86, 37.58 35.93, 38.64 72.47 M38.12 -0.71 C36.89 24.2, 37.66 47.63, 38.8 71.19 M37.16 72.68 C28.43 72.79, 22.84 71.43, 1.26 71.04 M38.46 70.64 C25.72 71.23, 14.84 71.31, 0.09 71.98 M1.14 69.55 C0.34 55.38, 0.45 38.18, -1.35 0.57 M0.16 71.83 C-1.18 48.65, -0.55 24.82, 0.14 -0.18" stroke="#000000" stroke-width="1" fill="none"></path></g><g transform="translate(157.669921875 537.357421875) rotate(0 14 12.5)"><text x="14" y="18" font-family="Virgil, Segoe UI Emoji" font-size="20px" fill="#000000" text-anchor="middle" style="white-space: pre;" direction="ltr">3</text></g><g stroke-linecap="round" transform="translate(12.44140625 393.1328125) rotate(0 115.55002386774754 60.33984375)"><path d="M-1.04 1.57 C61.08 -1.58, 124.02 -2.45, 230.89 0.67 M-0.16 -0.28 C79.7 0.37, 158.76 0.85, 230.44 -0.62 M230.63 0.11 C229.53 33.83, 230.66 62.21, 231.65 121.55 M231.54 0.26 C230.89 28.08, 231.36 56.34, 231.35 120.37 M231.75 122.03 C171.08 117.82, 113.07 120.37, -0.78 119.98 M230.73 120.52 C179.82 121.21, 127.33 121.04, 0.49 120.83 M0.57 121.98 C1.01 88.23, -1.33 55.94, 0.97 1.29 M0.87 119.88 C0.64 89.94, 1.19 58.95, -0.78 0.95" stroke="#000000" stroke-width="1" fill="none"></path></g><g stroke-linecap="round" transform="translate(44.19753394087911 414.174888891971) rotate(0 83.55946685919491 49.848840044981216)"><path d="M1.85 -1.22 C33.55 0.79, 66.8 0.78, 167.9 0.87 M-0.33 0.43 C59.74 0.42, 120.82 -0.45, 166.38 -0.34 M167.23 -1.1 C169.22 26.03, 165.51 52.54, 167.99 98.43 M167.37 0.45 C167.22 25.4, 166.9 49.22, 166.8 99.27 M168.71 98.95 C119.33 101.22, 76.27 99.42, -0.82 98.19 M166.93 100.5 C119.39 99.16, 71.58 99.56, 0.18 99.43 M1.3 100.71 C0.58 68.43, 1.23 40.78, 1.29 -0.91 M-0.8 99.5 C0.14 77.08, -0.15 52.98, 0.95 -0.8" stroke="#000000" stroke-width="1" fill="none"></path></g><g stroke-linecap="round"><g transform="translate(72.12010073091005 514.1665822304249) rotate(0 10.80811644124259 -9.054340814270063)"><path d="M1.11 -0.73 C4.57 -3.88, 18.11 -16.46, 21.38 -19.61 M0.23 1.5 C3.45 -1.39, 16.39 -14.83, 20.21 -18.14" stroke="#000000" stroke-width="1" fill="none"></path></g></g><g stroke-linecap="round"><g transform="translate(94.45327301114048 497.27349870168473) rotate(0 8.708097371726865 8.284984608223112)"><path d="M-0.73 -0.44 C2.42 2.26, 15 14.09, 18.15 17.3 M1.08 -1.71 C4.13 1.61, 14.42 15.21, 17.13 18.28" stroke="#000000" stroke-width="1" fill="none"></path></g></g><g stroke-linecap="round"><g transform="translate(144.080024798777 512.6642832104094) rotate(0 12.830683099859073 -12.359965391601463)"><path d="M-0.44 -0.14 C3.37 -4.12, 19.62 -20.62, 23.94 -24.58 M1.53 -1.26 C5.6 -4.98, 22.2 -19, 26.1 -23.12" stroke="#000000" stroke-width="1" fill="none"></path></g></g><g stroke-linecap="round"><g transform="translate(170.36185976284446 489.47812255342296) rotate(0 15.778049391946922 12.03001677387715)"><path d="M-0.14 -1.05 C5.52 3.21, 27.56 20.71, 33.23 25.11 M-1.68 1.01 C3.88 4.94, 26.36 19.5, 32.21 23.24" stroke="#000000" stroke-width="1" fill="none"></path></g></g><g stroke-linecap="round" transform="translate(103.81958047445096 439.62328346073764) rotate(0 25.60543942996037 25.60543942996037)"><path d="M30.07 0.3 C35.12 0.96, 41.85 5.67, 45.24 10 C48.64 14.33, 50.54 20.97, 50.44 26.26 C50.34 31.54, 48.27 37.65, 44.66 41.71 C41.05 45.76, 34.22 49.55, 28.77 50.57 C23.32 51.6, 16.54 50.64, 11.93 47.86 C7.33 45.08, 2.92 39.01, 1.13 33.9 C-0.66 28.78, -0.84 22.49, 1.19 17.2 C3.22 11.91, 7.99 4.8, 13.3 2.18 C18.6 -0.45, 29.57 1.54, 33.02 1.45 C36.48 1.37, 34.09 1.25, 34.03 1.66 M30.24 -1.01 C35.4 -0.62, 41.43 3.6, 44.81 7.78 C48.19 11.95, 50.52 18.39, 50.54 24.05 C50.55 29.7, 47.91 37.38, 44.89 41.71 C41.87 46.04, 37.8 48.81, 32.42 50.03 C27.03 51.24, 17.47 51.55, 12.56 49.01 C7.65 46.47, 4.95 40.14, 2.95 34.78 C0.95 29.43, -0.89 21.89, 0.55 16.85 C1.98 11.81, 6.94 7.36, 11.56 4.54 C16.17 1.71, 25.15 0.59, 28.22 -0.08 C31.3 -0.75, 29.91 0.14, 30.01 0.53" stroke="#000000" stroke-width="1" fill="none"></path></g><g stroke-linecap="round" transform="translate(52.873046875 332.09765625) rotate(0 96 30)"><path d="M0.78 0.87 C56.56 -0.81, 110.25 -0.42, 192.85 -1.53 M-0.74 -0.34 C59.09 1.85, 118.73 1.54, 191.45 0.87 M192.87 -1.26 C190.32 19.28, 192.29 36.69, 192.9 59.01 M191.69 -0.43 C191.27 22.76, 191.9 47.74, 191.63 59.14 M191.18 58.5 C125.7 59.76, 59.14 58.73, 1.61 59.75 M192.18 59.73 C130.81 61.04, 69.91 61.77, 0.51 60.25 M1.29 59.09 C-1.74 45.62, 1.39 30.35, -0.39 -0.07 M0.95 59.2 C0.6 39.74, 0.6 18.95, -0.07 0.21" stroke="#000000" stroke-width="1" fill="none"></path></g><g transform="translate(57.873046875 337.09765625) rotate(0 91 25)"><text x="0" y="18" font-family="Virgil, Segoe UI Emoji" font-size="20px" fill="#000000" text-anchor="start" style="white-space: pre;" direction="ltr">reprehenderit est </text><text x="0" y="43" font-family="Virgil, Segoe UI Emoji" font-size="20px" fill="#000000" text-anchor="start" style="white-space: pre;" direction="ltr">deserunt velit...</text></g><g stroke-linecap="round" transform="translate(10.646484375 332.9296875) rotate(0 21.5 29.5)"><path d="M1.24 -1.04 C11.99 -0.84, 25.61 -1.72, 43.2 -0.4 M-0.39 0.36 C9.33 0.2, 18.58 1.01, 43.02 -0.98 M41.91 1.19 C44.14 19.83, 44.16 37.65, 44.82 57.38 M42.76 -0.72 C43.2 19.99, 42.44 37.52, 43.44 59.65 M42.7 59.65 C31.21 58.29, 22.76 58.43, 0.37 58.36 M43 58.92 C27.89 59.54, 12.71 59.13, -0.66 59.58 M-1.39 58.64 C1.36 36.82, -0.78 17.78, 0.7 -0.66 M0.41 58.86 C-0.16 45.1, -0.63 33.06, 0.49 0.74" stroke="#000000" stroke-width="1" fill="none"></path></g><g transform="translate(15.646484375 349.9296875) rotate(0 16.5 12.5)"><text x="16.5" y="18" font-family="Virgil, Segoe UI Emoji" font-size="20px" fill="#000000" text-anchor="middle" style="white-space: pre;" direction="ltr">2</text></g><g stroke-linecap="round" transform="translate(12.337890625 10) rotate(0 116.244140625 288.607421875)"><path d="M-0.95 -0.53 C55.81 1.97, 112.07 1.09, 232.07 1.11 M-0.79 -0.1 C64.61 2.32, 129.1 1.71, 231.86 0.81 M232.35 0.49 C230.71 153.07, 230.4 305.84, 232.66 577.31 M232.29 -0.12 C231.95 173.43, 231.34 347.02, 232.82 577 M231.82 577.9 C158.03 576.93, 85.25 575.43, -0.06 577.26 M232.46 576.9 C164.49 578.35, 96.42 577.97, -0.4 577.98 M-0.51 577.79 C1.43 399.6, 2.11 223.06, 0.09 -0.28 M-0.13 577.05 C-2.13 454.02, -1.81 330, 0.26 -0.34" stroke="#000000" stroke-width="1" fill="none"></path></g></svg>