<svg version="1.1" xmlns="http://www.w3.org/2000/svg" viewBox="0 0 679.640625 568.08203125" width="679.640625" height="568.08203125">
  <!-- svg-source:excalidraw -->
  
  <defs>
    <style>
      @font-face {
        font-family: "Virgil";
        src: url("https://excalidraw.com/Virgil.woff2");
      }
      @font-face {
        font-family: "Cascadia";
        src: url("https://excalidraw.com/Cascadia.woff2");
      }
    </style>
  </defs>
  <rect x="0" y="0" width="679.640625" height="568.08203125" fill="#ffffff"></rect><g stroke-linecap="round" transform="translate(32.1171875 29.36328125) rotate(0 307.564453125 18.775390625)"><path d="M-0.2 0.62 C148.35 -0.17, 297.38 0.03, 615.8 0.53 M0.02 0.18 C238.53 -1.58, 476.74 -1.78, 615.04 0.34 M615.54 -0.07 C615.72 14.27, 615.61 26.07, 613.2 36.45 M615.15 -0.49 C615.04 12.67, 615.06 25.66, 615.18 37.92 M615.61 37.41 C461.92 37.47, 310.31 37.14, 0.6 37.61 M615.17 37.87 C401.3 37.27, 187.43 37.19, 0 37.53 M-0.77 38.68 C-0.29 22.33, 0.69 9.35, -1.81 1.85 M0.65 36.64 C-0.13 24.46, 1.12 12.11, -0.3 0.23" stroke="#000000" stroke-width="1" fill="none"></path></g><g transform="translate(44.875 34.06640625) rotate(0 164 12.5)"><text x="0" y="18" font-family="Virgil, Segoe UI Emoji" font-size="20px" fill="#000000" text-anchor="start" style="white-space: pre;" direction="ltr">type your search keywords here...</text></g><g stroke-linecap="round" transform="translate(613.47265625 36.00390625000003) rotate(0 6.586378822235929 6.586378822235886)"><path d="M3.65 -0.09 C4.82 -0.96, 7.45 -1.05, 8.71 -0.71 C9.96 -0.38, 10.51 0.51, 11.17 1.94 C11.84 3.36, 12.67 6.39, 12.71 7.82 C12.74 9.25, 12.2 9.52, 11.38 10.5 C10.56 11.48, 9.1 13.3, 7.8 13.71 C6.49 14.11, 4.82 13.97, 3.56 12.94 C2.29 11.92, 0.61 9.18, 0.21 7.55 C-0.19 5.92, 0.59 4.38, 1.14 3.16 C1.68 1.94, 2.9 0.86, 3.49 0.23 C4.07 -0.4, 4.31 -0.76, 4.64 -0.65 M6.16 -0.84 C7.63 -0.63, 9.69 2.23, 11.09 3.63 C12.49 5.02, 14.24 6.47, 14.56 7.56 C14.87 8.65, 14.21 9.15, 12.98 10.17 C11.75 11.19, 8.83 13.36, 7.17 13.69 C5.52 14.01, 4.04 13.06, 3.06 12.11 C2.08 11.16, 1.75 8.99, 1.29 7.97 C0.82 6.95, -0.18 7.05, 0.27 5.97 C0.72 4.9, 2.71 2.44, 3.99 1.54 C5.27 0.64, 7.41 0.83, 7.95 0.57 C8.49 0.31, 7.44 0, 7.24 -0.01" stroke="#000000" stroke-width="1" fill="none"></path></g><g stroke-linecap="round"><g transform="translate(623.3704476658659 47.63810662809175) rotate(0 4.881402657188914 5.966975958308666)"><path d="M-0.17 -0.16 C1.68 1.73, 9.64 9.76, 11.48 11.79 M-1.72 -1.3 C-0.1 0.75, 7.79 10.79, 10.28 13.23" stroke="#000000" stroke-width="1" fill="none"></path></g></g><g stroke-linecap="round" transform="translate(33.357421875 89.228515625) rotate(0 39 17.5)"><path d="M0.31 -0.76 C21.94 -0.26, 43.69 -0.31, 77 0.9 M0.44 -0.1 C23.05 0.22, 47.04 0.95, 78.36 -0.29 M76.61 0.44 C76.02 13.8, 77.11 28.23, 76.8 34.13 M78 0.88 C77.84 12.67, 78.25 26.01, 77.48 35.7 M78.45 36.32 C45.77 33.53, 17.83 34.22, 1.78 33.77 M78.88 35.76 C49.57 34.26, 20.7 34.12, 0.81 35.34 M-1.39 35 C0.76 25.75, -1.84 13.48, -1.16 0.21 M0.2 35.26 C0.63 20.93, -0.42 8.01, -0.93 -0.15" stroke="#000000" stroke-width="1" fill="none"></path></g><g transform="translate(38.357421875 94.228515625) rotate(0 34 12.5)"><text x="34" y="18" font-family="Virgil, Segoe UI Emoji" font-size="20px" fill="#000000" text-anchor="middle" style="white-space: pre;" direction="ltr">id</text></g><g stroke-linecap="round" transform="translate(110.8671875 90.03515625) rotate(0 203 17.5)"><path d="M-0.18 0.37 C80.66 -1.27, 163.36 -2.33, 405.4 1.02 M-0.53 0.47 C103.57 2.18, 206.49 1.51, 406.09 0.31 M404.25 0.7 C406.49 12.73, 404.64 29.53, 407.33 33.15 M406.99 0.33 C405.63 7.74, 407.09 16.99, 406.72 35.13 M405.16 35.45 C323.65 37.77, 240.13 37.45, 0.38 34.35 M406.05 35.35 C275.2 33.6, 143.96 34.21, -0.36 35.05 M0.55 34.52 C0.36 25, -1.29 17.97, 1.64 -0.9 M0.53 34.58 C-0.99 26.81, -0.9 17.63, -0.38 0.06" stroke="#000000" stroke-width="1" fill="none"></path></g><g transform="translate(115.8671875 95.03515625) rotate(0 198 12.5)"><text x="198" y="18" font-family="Virgil, Segoe UI Emoji" font-size="20px" fill="#000000" text-anchor="middle" style="white-space: pre;" direction="ltr">title</text></g><g stroke-linecap="round" transform="translate(518.0625 90.07421875) rotate(0 63 17.5)"><path d="M1.82 0.27 C31.02 0.04, 62.31 -0.29, 125.71 0.6 M-0.86 -0.37 C40.99 -0.54, 84.26 -0.7, 125.43 -0.33 M125.48 0.46 C127.38 9.14, 127.27 18.29, 124.87 33.58 M126.08 0.11 C125.26 12.23, 125.33 22.32, 126.39 35.56 M125.36 36.21 C87.64 34.26, 52.46 36.07, 1.04 34.97 M125.37 35.83 C77.24 35.22, 29.59 36.08, 0.3 35.31 M0.14 36.33 C0.96 22.63, 0.98 9.12, 0.17 -1.58 M-0.56 35.7 C0.38 23.57, 1.22 12.3, -0.95 -0.97" stroke="#000000" stroke-width="1" fill="none"></path></g><g transform="translate(523.0625 95.07421875) rotate(0 58 12.5)"><text x="58" y="18" font-family="Virgil, Segoe UI Emoji" font-size="20px" fill="#000000" text-anchor="middle" style="white-space: pre;" direction="ltr">thumbnail</text></g><g stroke-linecap="round" transform="translate(33.0458984375 124.4560546875) rotate(0 39 58)"><path d="M0.32 1.94 C20.85 -1.29, 41.18 2.19, 79.34 1.69 M0.48 0.46 C15.88 -0.38, 33.67 0.74, 78.9 0.4 M78.26 -1.46 C79.08 25.72, 76.86 55.32, 78.27 117.16 M78.58 -0.3 C78.57 40.81, 78.17 82.82, 78.45 115.22 M77.59 115.89 C61.38 115.22, 43.36 114.49, 0.77 116.77 M77.95 115.83 C62.21 115.82, 46.28 116.4, -0.68 115.63 M1.26 116.91 C2.11 91.26, -0.22 62.97, -0.54 1.9 M0.8 116.32 C-1.57 89.11, 0.17 61.79, 1 -0.52" stroke="#000000" stroke-width="1" fill="none"></path></g><g transform="translate(38.0458984375 169.9560546875) rotate(0 34 12.5)"><text x="34" y="18" font-family="Virgil, Segoe UI Emoji" font-size="20px" fill="#000000" text-anchor="middle" style="white-space: pre;" direction="ltr">1</text></g><g stroke-linecap="round" transform="translate(113.3251953125 125.2626953125) rotate(0 201.5 58)"><path d="M0.36 -0.91 C104.25 -1.16, 208.42 -1.25, 402.04 -0.91 M-0.47 -0.13 C128.48 -0.54, 257.22 -0.82, 402.62 0.32 M403.42 -1.28 C401.36 38.02, 403.43 74.54, 404.06 116.64 M403.2 -0.11 C403.47 26.64, 404.12 50.55, 402.33 116.82 M403.85 115.4 C267.99 114.86, 131.59 116.3, -1.07 115.9 M403.09 115.73 C266.72 115.68, 129.86 115.42, -0.43 115.64 M1.37 117.15 C-1.7 85.46, -1.27 59.32, -1.27 1.33 M-0.81 116.53 C0.02 84.83, 0.07 51.91, -0.13 -0.45" stroke="#000000" stroke-width="1" fill="none"></path></g><g transform="translate(118.3251953125 158.2626953125) rotate(0 196.5 25)"><text x="196.5" y="18" font-family="Virgil, Segoe UI Emoji" font-size="20px" fill="#000000" text-anchor="middle" style="white-space: pre;" direction="ltr">accusamus beatae ad facilis cum </text><text x="196.5" y="43" font-family="Virgil, Segoe UI Emoji" font-size="20px" fill="#000000" text-anchor="middle" style="white-space: pre;" direction="ltr">similique qui sunt</text></g><g stroke-linecap="round" transform="translate(519.0869140625 125.5322265625) rotate(0 61.4296875 58.3046875)"><path d="M0.75 1.86 C50.13 2.69, 95.87 -0.62, 123.23 0.97 M0.22 0.88 C43.41 0.68, 84.34 0.85, 123.02 0.13 M121.07 1.33 C123.38 27.61, 124.16 53.54, 121.28 117.77 M122.66 0.98 C123.54 30.66, 122.42 63.71, 123.23 116.4 M124.49 114.81 C87.46 116.72, 48.62 115.77, 0.77 116.52 M123.04 116.71 C87.36 115.65, 52.46 115.38, -0.48 117.24 M-0.96 115.35 C-1.34 78.2, -2.07 37.32, -0.52 1.59 M0.94 117.22 C1.94 77.4, 0.81 38.78, 0.28 0.58" stroke="#000000" stroke-width="1" fill="none"></path></g><g stroke-linecap="round" transform="translate(535.421875 139.2421875) rotate(0 44.048828125 44.78515625)"><path d="M0.41 1.94 C20.74 1.3, 41.81 1.59, 88.31 -1.3 M-0.01 -0.79 C32.62 1.53, 64.15 0.61, 88.01 -0.33 M90.02 -0.82 C88.79 33.13, 86.84 65.48, 90.01 88.46 M87.82 0.24 C89.29 18.24, 88.51 37.09, 88.37 90.43 M89.66 87.59 C63.69 89.41, 41.09 92.12, 1.5 91.25 M88.56 89.3 C61.39 88.4, 36.83 88.98, 0.34 89.75 M-0.3 88 C-0.55 71.38, 0.3 47.92, -1.28 -1.18 M-0.99 90.09 C0.55 64.18, 0.28 37.3, -0.14 -0.27" stroke="#000000" stroke-width="1" fill="none"></path></g><g stroke-linecap="round"><g transform="translate(536.7421875 199.68359375) rotate(0 11.9622693048604 -8.850196176394832)"><path d="M0.29 0.79 C4.35 -2.24, 20.68 -15.35, 24.94 -18.49 M-1.01 0.16 C2.85 -2.65, 19.63 -14.24, 24.07 -17.02" stroke="#000000" stroke-width="1" fill="none"></path></g></g><g stroke-linecap="round"><g transform="translate(561.79296875 182.68359375) rotate(0 13.852299796547754 15.74652603099122)"><path d="M0.35 -0.18 C4.9 4.87, 21.73 25.91, 26.42 31.23 M-0.93 -1.32 C4.08 3.86, 23.76 27.64, 28.63 32.81" stroke="#000000" stroke-width="1" fill="none"></path></g></g><g stroke-linecap="round"><g transform="translate(579.671875 199.0234375) rotate(0 10.784757847599678 -10.07246128879487)"><path d="M0.38 0.8 C3.73 -2.78, 16.87 -17.32, 20.33 -20.95 M-0.88 0.18 C2.8 -3.23, 18.94 -16.04, 22.44 -19.33" stroke="#000000" stroke-width="1" fill="none"></path></g></g><g stroke-linecap="round"><g transform="translate(601.80859375 178.57421875) rotate(0 10.511699051037397 7.9061710892710835)"><path d="M-0.47 0.15 C2.92 3.08, 17.85 13.84, 21.5 16.63 M1.48 -0.82 C4.71 1.85, 17.8 12.24, 21.06 14.89" stroke="#000000" stroke-width="1" fill="none"></path></g></g><g stroke-linecap="round" transform="translate(566.73046875 152.29296875) rotate(0 13.498046875 13.498046875)"><path d="M16.91 -0.13 C19.47 0.31, 22.25 3.63, 23.84 6.04 C25.44 8.46, 26.45 11.75, 26.48 14.34 C26.51 16.93, 25.72 19.38, 24.01 21.59 C22.29 23.8, 19.14 26.88, 16.19 27.6 C13.23 28.33, 8.99 27.43, 6.28 25.95 C3.57 24.46, 0.83 21.54, -0.09 18.69 C-1 15.84, -0.58 11.86, 0.77 8.86 C2.11 5.86, 5.26 2.04, 7.97 0.69 C10.68 -0.66, 15.32 0.73, 17.03 0.77 C18.74 0.81, 18.35 0.83, 18.23 0.91 M7.73 2.05 C9.75 0.58, 13 -0.11, 15.85 0.62 C18.71 1.34, 23.15 4.15, 24.85 6.42 C26.55 8.69, 26.53 11.5, 26.05 14.23 C25.58 16.97, 23.88 20.63, 21.99 22.83 C20.11 25.04, 17.36 26.99, 14.76 27.46 C12.16 27.93, 8.88 27.31, 6.38 25.65 C3.89 24, 0.67 20.75, -0.21 17.54 C-1.08 14.33, 0.04 8.92, 1.12 6.39 C2.21 3.87, 5.09 3.17, 6.31 2.4 C7.53 1.63, 8.3 1.67, 8.43 1.79" stroke="#000000" stroke-width="1" fill="none"></path></g><g stroke-linecap="round" transform="translate(35.0068359375 241.9384765625) rotate(0 38.5 58)"><path d="M-0.17 -1.75 C17.62 -1.01, 40 -0.69, 75.92 1.86 M0.79 0.34 C20.48 0.68, 41.01 0.68, 76.11 -0.72 M76.65 1.01 C76.37 33.81, 78.88 70.2, 78.45 115.55 M76.87 0.29 C77.11 45.51, 76.89 93.41, 76.98 116.98 M77.01 114.39 C47.61 115.81, 16.89 115.24, -1.03 114.88 M76.92 116.69 C58.9 115.49, 42.61 115.87, 0.9 115.33 M0.07 115.55 C1.27 89.67, 1.13 67.77, -1.31 -0.87 M-0.03 115.44 C-0.54 89.11, -0.38 59.41, -0.03 -0.16" stroke="#000000" stroke-width="1" fill="none"></path></g><g transform="translate(40.0068359375 287.4384765625) rotate(0 33.5 12.5)"><text x="33.5" y="18" font-family="Virgil, Segoe UI Emoji" font-size="20px" fill="#000000" text-anchor="middle" style="white-space: pre;" direction="ltr">2</text></g><g stroke-linecap="round" transform="translate(115.5166015625 242.9755859375) rotate(0 201.5 58)"><path d="M-0.82 -0.21 C155.5 1.95, 308.3 3.03, 402.68 -0.08 M-0.25 0.25 C107.92 -0.52, 216.26 -1.17, 403.02 0.14 M402.09 -1.42 C404.4 28.63, 404.24 57.29, 405 117.25 M402.38 -0.88 C402.01 32.35, 402.82 64.44, 403.96 115.01 M403.64 115.73 C267.29 113.58, 129.95 113.54, -0.87 116.11 M402.46 115.71 C281.65 117.47, 160.94 117.18, -0.47 115.62 M0.48 114.71 C0.31 82.87, -1.35 45.19, -1.2 -0.1 M-0.6 116.96 C-0.4 80.83, 0.01 47.28, 0.01 -0.72" stroke="#000000" stroke-width="1" fill="none"></path></g><g transform="translate(120.5166015625 288.4755859375) rotate(0 196.5 12.5)"><text x="196.5" y="18" font-family="Virgil, Segoe UI Emoji" font-size="20px" fill="#000000" text-anchor="middle" style="white-space: pre;" direction="ltr">reprehenderit est deserunt velit ipsam</text></g><g stroke-linecap="round" transform="translate(521.0478515625 243.0146484375) rotate(0 61.4296875 58.3046875)"><path d="M-0.05 -1.08 C29.78 -1.71, 55.68 -1.76, 124.44 0.68 M0.44 -0.89 C30.73 1.05, 63.15 0.5, 122.68 0.5 M122.61 1.45 C121.58 31.66, 123.28 58.79, 122.59 117.19 M123.48 -0.02 C122.8 28.77, 120.84 55.99, 122.86 115.8 M121.81 115.58 C77.86 115.64, 35.31 117.21, -0.16 117.98 M122.72 117.51 C97.25 115.62, 72.31 116.47, 0.03 116.38 M1.84 115.3 C-0.12 77.62, 0.65 40.93, -0.06 -1.11 M-0.89 116.58 C-1.29 88.63, -1.84 60.18, -0.37 0.65" stroke="#000000" stroke-width="1" fill="none"></path></g><g stroke-linecap="round" transform="translate(537.3828125 256.724609375) rotate(0 44.048828125 44.78515625)"><path d="M-1.08 1.86 C24.24 -0.12, 49 1.6, 88.77 -0.88 M-0.89 -0.72 C30.36 -0.15, 60.14 -0.56, 88.6 -0.46 M89.54 -0.45 C90.81 21.77, 88.29 40.77, 88.68 88.34 M88.07 0.98 C88.32 17.96, 87.74 37.91, 87.29 90.14 M87.07 88.45 C62.25 89.31, 39.51 88.95, 1.37 87.63 M89 88.9 C65.36 88.77, 44.32 89.48, -0.22 89.81 M-1.31 88.7 C-1.35 68.4, -0.25 47.36, -1.11 -1.2 M-0.03 89.41 C0.4 53.37, -0.06 18.24, 0.65 -0.07" stroke="#000000" stroke-width="1" fill="none"></path></g><g stroke-linecap="round"><g transform="translate(538.703125 317.166015625) rotate(0 11.895779597386706 -8.660163920745276)"><path d="M-0.65 1.12 C3.24 -1.95, 20.26 -15.35, 24.44 -18.44 M1.21 0.66 C4.81 -2.21, 19.61 -13.63, 23.31 -16.95" stroke="#000000" stroke-width="1" fill="none"></path></g></g><g stroke-linecap="round"><g transform="translate(563.75390625 300.166015625) rotate(0 13.761289108535266 15.270450957510633)"><path d="M1.12 -0.34 C5.67 4.9, 22.74 25.45, 27.28 30.76 M0.25 -1.56 C4.63 3.9, 21.65 26.94, 26.28 32.11" stroke="#000000" stroke-width="1" fill="none"></path></g></g><g stroke-linecap="round"><g transform="translate(581.6328125 316.505859375) rotate(0 10.371912955865241 -10.932494468260558)"><path d="M-0.34 -0.08 C3.28 -3.63, 17.38 -16.57, 21.08 -20.16 M1.68 -1.17 C5.17 -4.53, 16.67 -18.54, 19.94 -21.78" stroke="#000000" stroke-width="1" fill="none"></path></g></g><g stroke-linecap="round"><g transform="translate(603.76953125 296.056640625) rotate(0 9.936972177019413 7.349191275695347)"><path d="M-0.08 -0.37 C3.31 2.4, 18.12 13.51, 21.46 16.31 M-1.59 -1.61 C1.63 0.82, 17.59 11.74, 21.01 14.4" stroke="#000000" stroke-width="1" fill="none"></path></g></g><g stroke-linecap="round" transform="translate(568.69140625 269.775390625) rotate(0 13.498046875 13.498046875)"><path d="M14.95 0.63 C17.61 0.73, 20.89 1.87, 22.9 4.04 C24.91 6.22, 26.95 10.69, 27.03 13.67 C27.11 16.65, 25.14 19.84, 23.37 21.94 C21.6 24.05, 19.3 25.64, 16.42 26.32 C13.54 27, 8.72 27.26, 6.1 26.02 C3.48 24.79, 1.64 21.58, 0.72 18.9 C-0.21 16.22, -0.54 12.84, 0.56 9.95 C1.66 7.06, 4.38 3.04, 7.31 1.58 C10.24 0.12, 16.06 1.2, 18.15 1.17 C20.24 1.13, 20.06 1.11, 19.86 1.38 M11.84 0.57 C14.35 -0.08, 19.42 0.16, 22.05 1.84 C24.68 3.52, 26.96 7.71, 27.62 10.63 C28.27 13.54, 27.67 16.87, 25.98 19.31 C24.29 21.75, 20.52 24.1, 17.5 25.28 C14.48 26.46, 10.48 27.22, 7.88 26.39 C5.28 25.55, 3.02 23.03, 1.91 20.27 C0.8 17.52, 0.87 12.73, 1.21 9.86 C1.54 7, 1.94 4.5, 3.92 3.09 C5.91 1.67, 11.72 2.03, 13.12 1.35 C14.52 0.67, 12.46 -1, 12.33 -0.99" stroke="#000000" stroke-width="1" fill="none"></path></g><g stroke-linecap="round" transform="translate(33.5771484375 357.0751953125) rotate(0 40.5 58)"><path d="M1.81 1.87 C27.74 -1.21, 55.4 0.4, 82.72 0.14 M-0.04 -0.12 C20.77 0.34, 42.48 0.77, 80.17 0.21 M81.15 0.43 C79.3 26.34, 78.71 50.83, 79.83 115.72 M80.36 -0.57 C81.2 30.27, 81.18 59.94, 80.44 115.1 M80.33 117.22 C49.1 115.67, 19.8 114.76, 1.29 115.5 M81.33 116.63 C55.49 115.59, 31.37 115.8, 0.83 116.88 M-1.95 114.85 C1.07 71.23, -0.73 22.45, 1.86 -1.81 M-0.4 115.19 C0.29 84.77, 0.83 52.21, 0.15 -0.16" stroke="#000000" stroke-width="1" fill="none"></path></g><g transform="translate(38.5771484375 402.5751953125) rotate(0 35.5 12.5)"><text x="35.5" y="18" font-family="Virgil, Segoe UI Emoji" font-size="20px" fill="#000000" text-anchor="middle" style="white-space: pre;" direction="ltr">3</text></g><g stroke-linecap="round" transform="translate(114.3134765625 357.8818359375) rotate(0 201.5 58)"><path d="M-0.22 -0.84 C105.6 -2.06, 213.12 -2.03, 402.58 1.09 M-0.28 0.16 C118.7 0.68, 236.98 0.39, 402.57 -0.49 M402.3 0.34 C401.81 34.88, 401.92 71.84, 402.21 117.12 M402.55 0.06 C401.78 24.17, 401.7 48.38, 403.87 115.68 M402.71 116.05 C304.29 116.92, 204.55 117.1, 0.05 115.3 M402.53 116.05 C306.35 117.6, 210.5 117.93, 0.55 116.2 M1.49 117.47 C0.82 80.75, 2.99 45.84, -0.52 -0.58 M-0.05 116.54 C0.96 69.56, 0.61 23.47, 0.69 -0.95" stroke="#000000" stroke-width="1" fill="none"></path></g><g transform="translate(119.3134765625 390.8818359375) rotate(0 196.5 25)"><text x="196.5" y="18" font-family="Virgil, Segoe UI Emoji" font-size="20px" fill="#000000" text-anchor="middle" style="white-space: pre;" direction="ltr">officia porro iure quia iusto qui ipsa </text><text x="196.5" y="43" font-family="Virgil, Segoe UI Emoji" font-size="20px" fill="#000000" text-anchor="middle" style="white-space: pre;" direction="ltr">ut modi</text></g><g stroke-linecap="round" transform="translate(519.6181640625 358.1513671875) rotate(0 61.4296875 58.3046875)"><path d="M-0.86 0.1 C50.06 1.07, 95.92 2.86, 122.75 -0.08 M-0.05 0.72 C34.52 -0.15, 69.95 -1.23, 122.97 0.07 M121.58 -1.17 C121.28 37.19, 121.66 76.07, 121.11 115.33 M122.38 -0.47 C121.77 27.4, 123.21 56.3, 122.33 116.27 M124.42 115.8 C79.82 116.17, 34.29 115.42, -1.21 117.27 M122.57 116.9 C79.06 117.59, 34.58 117.08, -0.05 115.63 M-0.31 115.53 C0.99 86.54, -1.39 59.51, 1.96 -0.8 M0.49 116.35 C0.2 90.95, 0.74 64.67, -0.59 0.66" stroke="#000000" stroke-width="1" fill="none"></path></g><g stroke-linecap="round" transform="translate(535.953125 371.861328125) rotate(0 44.048828125 44.78515625)"><path d="M0.1 1.72 C24.88 -0.37, 51.4 0.27, 88.02 -0.24 M0.72 -0.83 C22.3 -0.71, 43.32 0.15, 88.17 0.21 M86.93 -1.17 C87.97 22.96, 89.37 45.76, 86.82 88.43 M87.63 -0.56 C87.25 23.71, 87.84 45.14, 87.76 90.18 M87.29 90.86 C63.44 90.35, 38.52 89.05, 0.66 90.84 M88.39 90.4 C69.97 90.3, 50.45 89.26, -0.97 88.99 M-1.08 91.43 C-2.46 55.5, -1.24 24.44, -0.8 -1.63 M-0.25 89.72 C-0.65 63.8, -1.44 36.06, 0.66 0.77" stroke="#000000" stroke-width="1" fill="none"></path></g><g stroke-linecap="round"><g transform="translate(537.2734375 432.302734375) rotate(0 11.748650940945367 -8.885943806543935)"><path d="M0.06 1.03 C4.35 -2.02, 20.55 -15.56, 24.87 -18.81 M-1.37 0.53 C2.85 -2.31, 19.44 -14.56, 23.96 -17.5" stroke="#000000" stroke-width="1" fill="none"></path></g></g><g stroke-linecap="round"><g transform="translate(562.32421875 415.302734375) rotate(0 13.513115482050921 15.690480955224473)"><path d="M1.03 0.09 C5.6 5.46, 22.53 27.13, 26.91 32.3 M0.12 -0.92 C4.53 4.15, 21.33 25.23, 25.73 30.78" stroke="#000000" stroke-width="1" fill="none"></path></g></g><g stroke-linecap="round"><g transform="translate(580.203125 431.642578125) rotate(0 10.643869813224285 -10.80989589728415)"><path d="M0.09 -0.45 C3.84 -4.15, 19.06 -17.7, 22.62 -21.17 M-1.33 -1.73 C2.37 -4.71, 18.62 -16.62, 22.28 -19.67" stroke="#000000" stroke-width="1" fill="none"></path></g></g><g stroke-linecap="round"><g transform="translate(602.33984375 411.193359375) rotate(0 9.998697852715907 9.047176331169908)"><path d="M-0.45 1.16 C2.79 3.79, 16.98 13.5, 20.45 15.86 M1.52 0.72 C4.5 3.54, 16.46 14.77, 19.46 17.37" stroke="#000000" stroke-width="1" fill="none"></path></g></g><g stroke-linecap="round" transform="translate(567.26171875 384.912109375) rotate(0 13.498046875 13.498046875)"><path d="M13.52 -0.05 C16.41 -0.33, 20.45 0.46, 22.69 2.16 C24.93 3.85, 26.66 7.14, 26.95 10.13 C27.24 13.13, 25.87 17.43, 24.45 20.12 C23.03 22.82, 21.05 25.25, 18.44 26.3 C15.83 27.35, 11.64 27.51, 8.79 26.44 C5.93 25.37, 2.84 22.42, 1.3 19.89 C-0.23 17.36, -0.91 13.94, -0.42 11.28 C0.06 8.61, 1.69 5.85, 4.22 3.89 C6.76 1.94, 12.61 0.09, 14.8 -0.46 C16.99 -1.01, 17.27 0.34, 17.39 0.59 M11.65 -0.1 C14.29 -0.77, 16.2 -0.39, 18.72 0.91 C21.25 2.22, 25.49 4.79, 26.79 7.72 C28.09 10.66, 27.59 15.5, 26.51 18.5 C25.44 21.5, 22.83 24.3, 20.34 25.72 C17.86 27.13, 14.53 27.62, 11.6 26.98 C8.67 26.34, 4.62 23.83, 2.77 21.88 C0.92 19.93, 0.75 17.99, 0.52 15.28 C0.29 12.56, -0.18 8.01, 1.38 5.6 C2.94 3.19, 8.2 1.42, 9.91 0.82 C11.62 0.21, 11.28 1.72, 11.65 1.96" stroke="#000000" stroke-width="1" fill="none"></path></g><g stroke-linecap="round" transform="translate(10 10) rotate(0 329.8203125 274.041015625)"><path d="M-0.8 0.33 C210.83 1.42, 422.63 0.66, 660.28 0.01 M-0.07 0.27 C215.66 0.41, 431.83 0.82, 659.43 -0.06 M659.45 -0.54 C658.54 121.84, 658.3 242.29, 659.24 548.29 M659.95 0.06 C660.62 153.03, 660.7 306.83, 659.33 548.27 M658.95 548.47 C425.35 548.04, 191.27 547.83, -0.55 548.64 M659.76 548 C502.15 549.72, 344.93 549.56, 0.37 548.3 M0.41 548.78 C-0.84 343.09, 0.42 138.41, -0.39 -0.41 M0.28 547.73 C-1.42 365.38, -0.89 182.8, 0.04 0.37" stroke="#000000" stroke-width="1" fill="none"></path></g><g stroke-linecap="round" transform="translate(37.95703125 484.28515625) rotate(0 29 26.5)"><path d="M-1.04 1.68 C13.1 -1.14, 26.74 1.26, 57.63 1.92 M0.52 0.99 C15.48 0.17, 31.66 0.24, 58.28 -0.43 M58.07 -1.44 C58.97 13.9, 57.89 26.23, 58.51 54.83 M57.25 0.86 C57.15 17.76, 57.96 34.79, 58.62 52.71 M58.98 54.51 C39.07 54.26, 20.88 54.23, 0.05 52.26 M58.55 53.27 C43.19 53.73, 26.78 53.51, -0.62 52.91 M-1.53 51.41 C1.41 34.27, 0.91 15.71, 0.18 1.07 M0.86 52.05 C1.12 35.52, 0.23 20.51, 0.51 0.18" stroke="#000000" stroke-width="1" fill="none"></path></g><g transform="translate(42.95703125 498.28515625) rotate(0 24 12.5)"><text x="24" y="18" font-family="Virgil, Segoe UI Emoji" font-size="20px" fill="#000000" text-anchor="middle" style="white-space: pre;" direction="ltr">&lt;&lt;</text></g><g stroke-linecap="round" transform="translate(97.80078125 484.78125) rotate(0 25 26.5)"><path d="M1.62 -1.42 C12.81 -0.13, 27.84 1.96, 51.53 1.69 M0.87 -0.61 C15.42 1.31, 32.78 1.43, 49.07 -0.55 M50.97 0.91 C49.27 18.99, 51.43 41.38, 49.13 52.25 M49.85 -0.06 C50.19 10.64, 50.01 22.45, 50.04 53.51 M49.53 52.24 C32.18 51.98, 13.71 52.98, -0.87 54.87 M49.27 52.81 C35.62 53.03, 21.57 53.45, 0.55 53.53 M1.84 51.31 C0.44 37.84, 1.04 23.54, 1.28 1.37 M-0.42 53.71 C0.19 36.55, 0.31 20.93, -0.92 0.28" stroke="#000000" stroke-width="1" fill="none"></path></g><g transform="translate(102.80078125 498.78125) rotate(0 20 12.5)"><text x="20" y="18" font-family="Virgil, Segoe UI Emoji" font-size="20px" fill="#000000" text-anchor="middle" style="white-space: pre;" direction="ltr">&lt;</text></g><g stroke-linecap="round" transform="translate(150.55859375 485.55859375) rotate(0 27 26.5)"><path d="M0.94 0.06 C18.06 0.02, 38.32 1.06, 55.21 -1.43 M0.54 0.48 C14.7 -0.23, 31.34 1, 54.97 -0.42 M54.17 0.72 C54.9 11.8, 52.97 25.47, 55.75 51.23 M54.9 0.13 C53.11 18.83, 54.22 39.77, 53.85 52.01 M52.61 51.31 C35.97 52.43, 18.18 51.82, 1.36 54.79 M53.83 53.18 C39.86 53.4, 24.23 53.14, -0.19 52.2 M1.83 52.16 C1.51 38.47, 0.52 27.92, -1.39 -0.25 M-0.35 52.7 C-0.3 39.12, 0.71 25.35, 0.27 -0.73" stroke="#000000" stroke-width="1" fill="none"></path></g><g transform="translate(155.55859375 499.55859375) rotate(0 22 12.5)"><text x="22" y="18" font-family="Virgil, Segoe UI Emoji" font-size="20px" fill="#000000" text-anchor="middle" style="white-space: pre;" direction="ltr">1</text></g><g stroke-linecap="round" transform="translate(206.43359375 485.38671875) rotate(0 26 26.5)"><path d="M-0.7 -0.6 C12.42 -0.12, 28.27 0.5, 52.54 -1.46 M-0.43 0.41 C20.87 -0.42, 40.69 -0.51, 51.93 -0.64 M52.09 1.37 C52.13 19.91, 51.01 39.61, 51.03 51.59 M52.56 -0.31 C52.07 19.41, 52.87 37.92, 51.41 52.44 M53.56 54.65 C31.42 53.17, 11.14 53.63, 0.71 53.2 M51.62 52.52 C40.36 52.43, 28.19 52.34, -0.94 53.69 M-1.11 51.63 C0.39 35.13, 0.99 16.99, 1.79 0.06 M-0.33 52.75 C0.12 33.72, -0.1 15.42, 0.44 0.91" stroke="#000000" stroke-width="1" fill="none"></path></g><g transform="translate(211.43359375 499.38671875) rotate(0 21 12.5)"><text x="21" y="18" font-family="Virgil, Segoe UI Emoji" font-size="20px" fill="#000000" text-anchor="middle" style="white-space: pre;" direction="ltr">2</text></g><g stroke-linecap="round" transform="translate(260.59375 485.41796875) rotate(0 26 26.5)"><path d="M-0.39 -1.94 C15.33 -1.79, 33.18 1.95, 50.46 -0.95 M0.08 0.93 C10.59 0.53, 22.78 0.92, 52.18 0.55 M52.08 1.76 C54.05 11.38, 52.58 25.01, 53.22 51.01 M52.58 -0.73 C51.63 18.72, 50.76 39.14, 51.79 53.71 M51.26 54.47 C34.35 53.03, 13.79 54.96, 0.86 52.19 M51.33 53.91 C32.23 53.86, 10.6 52.42, 0.1 52.3 M1.39 52.94 C-0.92 43.56, -0.87 32.12, -0.74 -1.13 M0.67 53.86 C-0.19 37.48, 0.71 22.8, -0.76 -0.3" stroke="#000000" stroke-width="1" fill="none"></path></g><g transform="translate(265.59375 499.41796875) rotate(0 21 12.5)"><text x="21" y="18" font-family="Virgil, Segoe UI Emoji" font-size="20px" fill="#000000" text-anchor="middle" style="white-space: pre;" direction="ltr">3</text></g><g stroke-linecap="round" transform="translate(314.65234375 485.5546875) rotate(0 27.5 26.5)"><path d="M-0.1 1.96 C21.63 -1.58, 39.72 -1.94, 56.07 1.22 M0.51 0.44 C11.17 0.37, 22.22 0.04, 55.12 -0.78 M53.68 1.01 C54.04 11.81, 55.6 26.21, 56.07 52.46 M54.39 0.84 C55.57 20.75, 55.18 40.71, 54.34 53.57 M54.65 51.77 C40.38 53.22, 21.27 51.23, 0.48 51.33 M55.2 52.06 C35.32 53.51, 13.57 52.95, 0.55 52.9 M0.22 54.55 C-0.18 42.92, 2.08 30.72, 1.85 -1.83 M0.82 53.22 C-1.14 37.21, -0.42 18.75, -0.33 0.45" stroke="#000000" stroke-width="1" fill="none"></path></g><g transform="translate(319.65234375 499.5546875) rotate(0 22.5 12.5)"><text x="22.5" y="18" font-family="Virgil, Segoe UI Emoji" font-size="20px" fill="#000000" text-anchor="middle" style="white-space: pre;" direction="ltr">4</text></g><g stroke-linecap="round" transform="translate(425.91796875 485.453125) rotate(0 26.5 26.5)"><path d="M-1.4 0.72 C10.62 1.29, 23.04 2.32, 51.12 -1.49 M0.45 0.14 C15.5 0.62, 31.56 0.13, 53.17 0.53 M51.61 0.68 C53.8 13.19, 52.2 25.69, 54.03 52.9 M52.1 0.15 C54.27 14.04, 54.13 27.55, 53.82 52.84 M52.3 54.44 C33.47 51.41, 11.66 54.7, -1.32 54.12 M52.88 52.83 C33.39 53.91, 13.19 53.26, 0.66 53.33 M-1.65 54.7 C1.41 35.48, -1.65 20.34, -0.08 -1 M0.44 53.39 C-0.78 31.96, -0.55 13.19, -0.12 0.24" stroke="#000000" stroke-width="1" fill="none"></path></g><g transform="translate(430.91796875 499.453125) rotate(0 21.5 12.5)"><text x="21.5" y="18" font-family="Virgil, Segoe UI Emoji" font-size="20px" fill="#000000" text-anchor="middle" style="white-space: pre;" direction="ltr">...</text></g><g stroke-linecap="round" transform="translate(479.48046875 485.8359375) rotate(0 27 26.5)"><path d="M-1.76 1.27 C14.21 0.95, 32.76 -0.22, 52.83 -1.23 M0.61 0.9 C16.46 0.24, 34 0.05, 54.11 -0.67 M54.88 -0.79 C55 11.48, 53.1 24.15, 54 52.17 M54.95 -0.71 C54.73 13.49, 54.69 26.83, 53.66 53.44 M54.03 54.06 C34 51.62, 14.5 52.04, -0.44 52.07 M53.23 53.59 C37.31 52.59, 20.16 52.29, -0.23 52.97 M-1.21 53.22 C0.12 36.59, 1.4 17.81, 0.35 -1.51 M0.47 53.32 C-0.46 36.26, -0.11 19.73, -0.76 0.71" stroke="#000000" stroke-width="1" fill="none"></path></g><g transform="translate(484.48046875 499.8359375) rotate(0 22 12.5)"><text x="22" y="18" font-family="Virgil, Segoe UI Emoji" font-size="20px" fill="#000000" text-anchor="middle" style="white-space: pre;" direction="ltr">50</text></g><g stroke-linecap="round" transform="translate(532.18359375 486.01953125) rotate(0 27 26.5)"><path d="M1.91 -1.34 C15.2 0.8, 30.54 -1.62, 53.71 -1.14 M0.45 -0.97 C16.36 0.92, 34.38 0.61, 53.06 -0.5 M54.72 -1.13 C52.34 16.72, 55.82 37.23, 53.74 53.45 M54.37 -0.62 C54.06 16.69, 54.77 31.92, 53.05 52.18 M52.26 52.56 C37.4 52.79, 24.83 54.8, 1.48 53.71 M53.45 52.98 C33.6 52.9, 11.69 52.44, 0.47 53.35 M1.32 54.41 C1.64 36.35, -0.6 19.16, -1.83 -0.77 M0.96 52.87 C-0.64 35.83, 0.42 19.32, -0.49 0.7" stroke="#000000" stroke-width="1" fill="none"></path></g><g transform="translate(537.18359375 500.01953125) rotate(0 22 12.5)"><text x="22" y="18" font-family="Virgil, Segoe UI Emoji" font-size="20px" fill="#000000" text-anchor="middle" style="white-space: pre;" direction="ltr">&gt;</text></g><g stroke-linecap="round" transform="translate(587.63671875 485.31640625) rotate(0 26 26.5)"><path d="M-0.97 1.39 C14.82 1.18, 27.5 0.05, 53.23 -1.54 M-0.3 0.92 C13.8 0.87, 28.98 1, 51.73 -0.37 M50.43 0.02 C52.63 14.04, 51.57 28.21, 51.57 53.17 M52.29 -0.94 C52.93 11.5, 52.33 21.43, 51.63 53.77 M50.43 54.89 C38.53 52.33, 21.91 55.23, -1.7 52.24 M51.16 53.54 C35.14 53.32, 18.39 53.33, -0.29 53.17 M1.11 54.38 C-0.55 36.01, -1.72 16.51, 0.09 0.58 M-0.03 53.29 C0.39 37.91, 0.97 21.83, -0.06 0.63" stroke="#000000" stroke-width="1" fill="none"></path></g><g transform="translate(592.63671875 499.31640625) rotate(0 21 12.5)"><text x="21" y="18" font-family="Virgil, Segoe UI Emoji" font-size="20px" fill="#000000" text-anchor="middle" style="white-space: pre;" direction="ltr">&gt;&gt;</text></g><g stroke-linecap="round" transform="translate(369.51171875 485.23828125) rotate(0 27.5 26.5)"><path d="M0.45 1.94 C19.89 -0.2, 39.65 2.22, 55.78 -1.51 M0.68 -0.22 C21.09 -0.47, 43.01 -0.39, 55.86 -0.96 M54.24 1.77 C55.75 13.15, 54.88 26.79, 53.94 52.63 M55.58 0.1 C54.55 11.62, 54.85 22.15, 55.04 52.24 M53.45 51.45 C35.7 54.71, 15.22 52.65, 1.88 51.96 M55.79 53.31 C44.15 52.75, 30.88 52.32, 0.6 53.66 M-1.53 52.39 C-0.43 36.74, 2.24 18.92, 1.72 1.31 M0.53 52.61 C-0.46 37.61, 0.45 24.07, -0.48 -0.03" stroke="#000000" stroke-width="1" fill="none"></path></g><g transform="translate(374.51171875 499.23828125) rotate(0 22.5 12.5)"><text x="22.5" y="18" font-family="Virgil, Segoe UI Emoji" font-size="20px" fill="#000000" text-anchor="middle" style="white-space: pre;" direction="ltr">5</text></g></svg>