<svg version="1.1" xmlns="http://www.w3.org/2000/svg" viewBox="0 0 685.3890671191419 568.34765625" width="685.3890671191419" height="568.34765625">
  <!-- svg-source:excalidraw -->
  
  <defs>
    <style>
      @font-face {
        font-family: "Virgil";
        src: url("https://excalidraw.com/Virgil.woff2");
      }
      @font-face {
        font-family: "Cascadia";
        src: url("https://excalidraw.com/Cascadia.woff2");
      }
    </style>
  </defs>
  <rect x="0" y="0" width="685.3890671191419" height="568.34765625" fill="#ffffff"></rect><g stroke-opacity="0.2" fill-opacity="0.2" stroke-linecap="round" transform="translate(37.86562961914194 29.62890625) rotate(0 307.564453125 18.775390625)"><path d="M0.28 -0.16 C205.74 0.93, 411.5 0.29, 615.47 -0.31 M0.27 0.39 C145.9 -1.32, 291.24 -1.89, 615.22 0.02 M613.14 0.73 C615.71 8.53, 613.76 20.95, 615.97 37.4 M615.64 -0.1 C615.26 10.39, 615.66 18.55, 615.89 36.9 M614.43 37.33 C394.45 37.77, 174.67 38.49, 0.26 38.14 M615.11 37.82 C427.64 39.15, 240.87 39.13, 0.17 37.53 M0.81 39.49 C1.39 26.11, -0.19 11.81, -0.7 0 M0.69 37.43 C-1.24 25.72, -1.12 13.78, -0.82 -0.34" stroke="#000000" stroke-width="1" fill="none"></path></g><g stroke-opacity="0.2" fill-opacity="0.2" transform="translate(50.62344211914194 34.33203125) rotate(0 164 12.5)"><text x="0" y="18" font-family="Virgil, Segoe UI Emoji" font-size="20px" fill="#000000" text-anchor="start" style="white-space: pre;" direction="ltr">type your search keywords here...</text></g><g stroke-opacity="0.2" fill-opacity="0.2" stroke-linecap="round" transform="translate(619.2210983691419 36.26953125) rotate(0 6.586378822235929 6.586378822235872)"><path d="M7.74 -0.35 C9.07 -0.09, 9.71 1.45, 10.72 2.65 C11.74 3.85, 13.48 5.48, 13.83 6.84 C14.19 8.21, 13.68 9.93, 12.88 10.85 C12.07 11.76, 10.63 12, 9 12.31 C7.37 12.62, 4.49 13.31, 3.09 12.72 C1.69 12.13, 0.92 10.2, 0.61 8.76 C0.3 7.33, 1.03 5.32, 1.25 4.1 C1.48 2.89, 0.8 2.21, 1.94 1.47 C3.08 0.73, 7.13 -0.34, 8.09 -0.35 C9.06 -0.36, 7.7 1.23, 7.73 1.4 M5.74 0.05 C7.22 -0.05, 8.61 1.56, 9.93 2.13 C11.25 2.71, 12.98 2.61, 13.67 3.49 C14.36 4.37, 14.48 6.2, 14.06 7.4 C13.65 8.61, 12.45 9.98, 11.17 10.72 C9.88 11.46, 7.96 11.79, 6.34 11.83 C4.72 11.87, 2.65 11.52, 1.44 10.93 C0.24 10.34, -0.92 9.56, -0.87 8.28 C-0.83 6.99, 0.56 4.55, 1.72 3.21 C2.87 1.88, 5.5 0.58, 6.08 0.27 C6.66 -0.04, 5.37 1.1, 5.21 1.37" stroke="#000000" stroke-width="1" fill="none"></path></g><g stroke-linecap="round"><g stroke-opacity="0.2" fill-opacity="0.2" transform="translate(629.1188897850078 47.90373162809169) rotate(0 6.695237083592019 5.9064933663220245)"><path d="M-0.33 0.27 C1.49 2.19, 9.21 9.41, 11.35 11.28 M1.69 -0.64 C3.87 1.44, 12.01 10.25, 13.72 12.45" stroke="#000000" stroke-width="1" fill="none"></path></g></g><g stroke-opacity="0.2" fill-opacity="0.2" stroke-linecap="round" transform="translate(39.10586399414194 89.494140625) rotate(0 39 17.5)"><path d="M-1.06 -1.16 C22.71 -0.96, 42.44 1.04, 79.35 1.35 M-0.68 -0.57 C31.32 -0.61, 61.72 0.32, 77.37 -0.99 M76.26 1.9 C78.88 11.63, 77.05 22.58, 77.45 36.02 M78.72 -0.26 C78.87 9.49, 78.7 19.41, 78.28 34.13 M79.61 35.63 C57.42 36.01, 35.66 34.8, 1.38 34.92 M78.84 34.68 C49.79 34.74, 20.94 35.06, -0.69 35.4 M-0.09 33.28 C-0.96 21.11, -0.14 8.79, 1.34 1.39 M-0.82 34.23 C-0.49 24.58, 0.18 14.45, -0.53 -0.13" stroke="#000000" stroke-width="1" fill="none"></path></g><g stroke-opacity="0.2" fill-opacity="0.2" transform="translate(44.10586399414194 94.494140625) rotate(0 34 12.5)"><text x="34" y="18" font-family="Virgil, Segoe UI Emoji" font-size="20px" fill="#000000" text-anchor="middle" style="white-space: pre;" direction="ltr">id</text></g><g stroke-opacity="0.2" fill-opacity="0.2" stroke-linecap="round" transform="translate(116.61562961914194 90.30078125) rotate(0 203 17.5)"><path d="M0.48 -0.44 C130.1 1.99, 262.36 2.07, 407.1 0.4 M0.13 0.03 C156.48 1.84, 313.13 0.73, 406.2 0.06 M406.84 -0.15 C404.7 7.77, 405.14 18.54, 405.79 35.64 M406.76 -0.65 C406.84 13.07, 406.53 27.02, 405.72 34.84 M406.36 35.82 C308.39 35.86, 211.44 35.67, 0.75 34.47 M406.23 34.96 C294.74 34.43, 182.87 34.51, 0.54 35.41 M-0.7 35 C0.14 25.07, 1.36 13.38, -0.24 -1.88 M-0.82 34.66 C0.14 25.28, -0.24 16.23, -0.32 -0.84" stroke="#000000" stroke-width="1" fill="none"></path></g><g stroke-opacity="0.2" fill-opacity="0.2" transform="translate(121.61562961914194 95.30078125) rotate(0 198 12.5)"><text x="198" y="18" font-family="Virgil, Segoe UI Emoji" font-size="20px" fill="#000000" text-anchor="middle" style="white-space: pre;" direction="ltr">title</text></g><g stroke-opacity="0.2" fill-opacity="0.2" stroke-linecap="round" transform="translate(523.8109421191419 90.33984375) rotate(0 63 17.5)"><path d="M-1.26 1.21 C31.82 1.84, 62.91 1.21, 127.72 -1.35 M-0.46 0.99 C30 -1.06, 61.62 0.04, 125.5 -0.87 M125.01 -0.99 C125.59 14.85, 125.94 28.3, 127.97 36.44 M126.59 -0.88 C126.55 8.7, 125.99 18.99, 125.41 35.81 M126.09 35.27 C85.63 35.85, 43.84 34.99, -0.51 36.67 M126.2 35.26 C91.49 35.32, 59.32 35.66, 0.29 34.95 M0.12 36.57 C1.46 28.9, -0.12 18.13, -0.67 -1.64 M-0.15 34.6 C-0.24 27.08, -0.03 18.57, 0.31 0.66" stroke="#000000" stroke-width="1" fill="none"></path></g><g stroke-opacity="0.2" fill-opacity="0.2" transform="translate(528.8109421191419 95.33984375) rotate(0 58 12.5)"><text x="58" y="18" font-family="Virgil, Segoe UI Emoji" font-size="20px" fill="#000000" text-anchor="middle" style="white-space: pre;" direction="ltr">thumbnail</text></g><g stroke-opacity="0.2" fill-opacity="0.2" stroke-linecap="round" transform="translate(38.79434055664194 124.7216796875) rotate(0 39 58)"><path d="M1.35 1.35 C22.31 0.24, 42.4 -1.82, 76.86 0.46 M-0.63 -0.99 C24.21 -0.66, 47.19 -1.64, 78.95 0.42 M77.45 1.02 C77.22 34.54, 79.4 69.24, 77.47 117.52 M78.28 -0.87 C78.4 27.08, 78.08 55.3, 78.31 116.32 M79.38 115.92 C50.18 115.16, 19.17 117.78, -0.63 116.84 M77.31 116.4 C56.07 116.95, 32.49 116.16, -0.86 115.65 M1.34 117.39 C-0.31 79.29, -0.75 44.71, -1.55 -1.63 M-0.53 115.87 C-0.15 84.3, 0.48 54.94, -0.78 -0.26" stroke="#000000" stroke-width="1" fill="none"></path></g><g stroke-opacity="0.2" fill-opacity="0.2" transform="translate(43.79434055664194 170.2216796875) rotate(0 34 12.5)"><text x="34" y="18" font-family="Virgil, Segoe UI Emoji" font-size="20px" fill="#000000" text-anchor="middle" style="white-space: pre;" direction="ltr">1</text></g><g stroke-opacity="0.2" fill-opacity="0.2" stroke-linecap="round" transform="translate(119.07363743164194 125.5283203125) rotate(0 201.5 58)"><path d="M1.11 0.4 C146.34 -2.29, 290.1 -1.27, 403.06 -0.52 M0.21 0.06 C160.38 1.76, 321.85 2.48, 402.96 -0.28 M402.79 0.64 C404.65 30.49, 402.15 59.63, 401.7 117.17 M402.72 -0.16 C402.73 25.45, 403.64 49.61, 403.74 116.04 M403.75 115.47 C276.41 116.85, 150.04 116.38, -0.07 116.22 M403.54 116.42 C271.75 116.89, 139.69 116.72, 0 116.03 M-0.24 114.12 C-1.45 70.43, -2.32 26.52, -0.68 -0.3 M-0.32 115.16 C0.92 86.53, -0.17 55.48, -0.85 0.59" stroke="#000000" stroke-width="1" fill="none"></path></g><g stroke-opacity="0.2" fill-opacity="0.2" transform="translate(124.07363743164194 158.5283203125) rotate(0 196.5 25)"><text x="196.5" y="18" font-family="Virgil, Segoe UI Emoji" font-size="20px" fill="#000000" text-anchor="middle" style="white-space: pre;" direction="ltr">accusamus beatae ad facilis cum </text><text x="196.5" y="43" font-family="Virgil, Segoe UI Emoji" font-size="20px" fill="#000000" text-anchor="middle" style="white-space: pre;" direction="ltr">similique qui sunt</text></g><g stroke-opacity="0.2" fill-opacity="0.2" stroke-linecap="round" transform="translate(524.8353561816419 125.7978515625) rotate(0 61.4296875 58.3046875)"><path d="M-1.35 -1.14 C49.43 -0.94, 97.01 0.92, 121.6 -1.98 M-0.87 0.95 C41.78 0.53, 82.23 0.12, 122.58 0.51 M124.3 -0.53 C124.75 32.48, 124.4 65.82, 123.42 114.86 M123.67 0.31 C122.99 32.46, 122.71 63.57, 123.55 116.57 M124.53 115.98 C78.61 116.17, 33.07 116.82, -1.37 117.42 M122.81 115.75 C73.74 116.96, 25.38 117.75, 0.67 117.3 M-1.64 115.06 C-0.53 82.36, 0.8 48.67, -1.06 -0.26 M0.66 115.83 C0.73 84.51, 1.57 53.69, -0.13 -0.45" stroke="#000000" stroke-width="1" fill="none"></path></g><g stroke-opacity="0.2" fill-opacity="0.2" stroke-linecap="round" transform="translate(541.1703171191419 139.5078125) rotate(0 44.048828125 44.78515625)"><path d="M-1.14 0.46 C29.68 -0.33, 61.1 -0.66, 86.11 0.73 M0.95 0.42 C27.3 0.27, 54.26 0.49, 88.61 -0.1 M87.57 1.52 C87.68 30.89, 87.23 59.99, 86.35 89.01 M88.41 0.32 C88.3 25.46, 87.7 51.52, 88.06 90.24 M87.47 90.41 C65.7 90.7, 44.08 88.93, 0.81 91.51 M87.24 89.22 C55.12 89.59, 22.92 90.2, 0.69 89.45 M-1.55 87.94 C-0.38 70.84, -0.5 51.65, -0.26 -0.64 M-0.78 89.31 C-1.12 70.83, -0.69 50.78, -0.45 -0.63" stroke="#000000" stroke-width="1" fill="none"></path></g><g stroke-linecap="round"><g stroke-opacity="0.2" fill-opacity="0.2" transform="translate(542.4906296191419 199.94921875) rotate(0 12.083331996574998 -9.318302703276231)"><path d="M-0.68 0.28 C3.29 -2.74, 20.41 -15.68, 24.85 -18.91 M1.16 -0.63 C4.89 -3.42, 19.83 -14.74, 23.94 -17.67" stroke="#000000" stroke-width="1" fill="none"></path></g></g><g stroke-linecap="round"><g stroke-opacity="0.2" fill-opacity="0.2" transform="translate(567.5414108691419 182.94921875) rotate(0 12.881867513228258 15.689777913819967)"><path d="M0.28 0.07 C4.88 5.57, 22.41 27.34, 26.8 32.32 M-1.04 -0.94 C3.43 4.32, 20.54 25.56, 25.56 30.82" stroke="#000000" stroke-width="1" fill="none"></path></g></g><g stroke-linecap="round"><g stroke-opacity="0.2" fill-opacity="0.2" transform="translate(585.4203171191419 199.2890625) rotate(0 10.643166771819836 -10.047226235708195)"><path d="M0.07 -0.56 C3.96 -4.25, 19.27 -18.51, 22.64 -21.86 M-1.35 1.77 C2.54 -1.81, 18.33 -16.63, 22.31 -20.72" stroke="#000000" stroke-width="1" fill="none"></path></g></g><g stroke-linecap="round"><g stroke-opacity="0.2" fill-opacity="0.2" transform="translate(607.5570358691419 178.83984375) rotate(0 10.758202662188637 8.19391270298513)"><path d="M-0.56 1.18 C2.69 3.63, 16.17 12.24, 19.76 14.72 M1.35 0.76 C4.96 3.3, 18.9 12.85, 22.07 15.63" stroke="#000000" stroke-width="1" fill="none"></path></g></g><g stroke-opacity="0.2" fill-opacity="0.2" stroke-linecap="round" transform="translate(572.4789108691419 152.55859375) rotate(0 13.498046875 13.498046875)"><path d="M6.58 0.76 C9.01 -0.65, 14.25 0.05, 17.16 0.7 C20.06 1.34, 22.44 2.46, 24 4.61 C25.55 6.76, 26.48 10.64, 26.5 13.59 C26.51 16.55, 25.89 19.98, 24.11 22.35 C22.32 24.73, 18.62 27.44, 15.79 27.84 C12.97 28.23, 9.54 26.52, 7.15 24.73 C4.76 22.95, 2.39 19.96, 1.45 17.11 C0.52 14.27, 0.36 10.48, 1.53 7.66 C2.7 4.84, 7.21 1.36, 8.48 0.21 C9.76 -0.94, 9.24 0.25, 9.18 0.74 M15.67 0.37 C18.51 0.43, 22.67 2.55, 24.72 4.58 C26.77 6.61, 28.19 9.44, 28 12.55 C27.81 15.66, 25.67 20.77, 23.61 23.24 C21.54 25.71, 18.4 26.98, 15.6 27.38 C12.81 27.77, 9.25 27.28, 6.86 25.6 C4.48 23.93, 2.21 19.82, 1.29 17.31 C0.37 14.8, 0.28 13.05, 1.34 10.56 C2.4 8.07, 5.29 4.31, 7.66 2.36 C10.02 0.41, 14.31 -0.8, 15.54 -1.12 C16.77 -1.44, 15.05 -0.2, 15.04 0.44" stroke="#000000" stroke-width="1" fill="none"></path></g><g stroke-opacity="0.2" fill-opacity="0.2" stroke-linecap="round" transform="translate(40.75527805664194 242.2041015625) rotate(0 38.5 58)"><path d="M-1.98 0.73 C19.74 -0.51, 37.31 2.39, 77.84 -0.15 M0.51 -0.1 C19.6 1.2, 39.29 -0.05, 77.76 -0.65 M75.25 -0.56 C75.66 40.4, 77.6 83.81, 77.64 117.48 M76.96 0.67 C76.68 35.06, 77.99 70.33, 77.42 115.94 M77.81 117.94 C53.85 116.05, 27.64 113.75, -0.7 116 M77.69 115.88 C52.48 116.18, 29.03 115.74, -0.82 115.66 M-0.26 115.36 C-1.22 83.54, 1.79 48.28, -0.51 -1.69 M-0.45 115.37 C-0.02 74.06, 0.6 33.6, 0.23 0.11" stroke="#000000" stroke-width="1" fill="none"></path></g><g stroke-opacity="0.2" fill-opacity="0.2" transform="translate(45.75527805664194 287.7041015625) rotate(0 33.5 12.5)"><text x="33.5" y="18" font-family="Virgil, Segoe UI Emoji" font-size="20px" fill="#000000" text-anchor="middle" style="white-space: pre;" direction="ltr">2</text></g><g stroke-opacity="0.2" fill-opacity="0.2" stroke-linecap="round" transform="translate(121.26504368164194 243.2412109375) rotate(0 201.5 58)"><path d="M0.12 -0.56 C94.58 0.24, 191.59 -0.92, 402.44 -0.56 M0.18 0.55 C110.14 0.08, 219.9 -0.13, 403.33 -0.49 M402.67 -1.19 C403.6 38.69, 402.63 77.6, 403.09 116.27 M402.53 -0.26 C403.79 42.51, 403.38 85.59, 403.2 116.26 M403.84 116.32 C309.73 117.23, 216.18 118.2, 0.07 116.88 M402.47 115.81 C254.63 115.29, 106.72 115.54, -0.08 115.77 M-1.68 116.61 C1.48 85.76, -0.36 56.97, 1.18 -0.83 M-0.5 115.7 C0.64 83.65, 0.75 49.62, -0.43 0.24" stroke="#000000" stroke-width="1" fill="none"></path></g><g stroke-opacity="0.2" fill-opacity="0.2" transform="translate(126.26504368164194 288.7412109375) rotate(0 196.5 12.5)"><text x="196.5" y="18" font-family="Virgil, Segoe UI Emoji" font-size="20px" fill="#000000" text-anchor="middle" style="white-space: pre;" direction="ltr">reprehenderit est deserunt velit ipsam</text></g><g stroke-opacity="0.2" fill-opacity="0.2" stroke-linecap="round" transform="translate(526.7962936816419 243.2802734375) rotate(0 61.4296875 58.3046875)"><path d="M1.9 0.84 C38.03 0.08, 75.37 0.52, 123.88 -0.21 M-0.26 0.76 C40.11 -0.3, 80.65 -0.6, 121.99 -0.28 M123.49 0.64 C123.64 33.17, 122.43 67.55, 122.78 117.95 M122.54 0.42 C122.5 29.68, 122.82 58.27, 123.26 117.58 M121.14 115.91 C76.87 116.67, 32.44 117.89, 1.39 116.37 M122.09 115.79 C97.24 115.45, 71.89 115.07, -0.13 116.29 M-1.57 116.1 C-2.05 92.63, -1.18 66.01, -0.9 -1.25 M0.9 116.84 C0.46 87.05, 0.58 59.02, -0.39 -0.34" stroke="#000000" stroke-width="1" fill="none"></path></g><g stroke-opacity="0.2" fill-opacity="0.2" stroke-linecap="round" transform="translate(543.1312546191419 256.990234375) rotate(0 44.048828125 44.78515625)"><path d="M0.84 -0.15 C21.06 -1.83, 43.54 0.18, 87.89 0.64 M0.76 -0.65 C35.69 -0.64, 70.5 -0.64, 87.82 -0.16 M88.74 1.48 C88.91 21.81, 90.2 43.01, 89.44 88.63 M88.52 -0.06 C89.05 24.83, 88.16 49.55, 89.07 90.31 M87.4 89.58 C59.26 90.39, 31.51 90.2, -0.24 87.69 M87.28 89.23 C64.49 88.49, 40.66 88.76, -0.32 88.73 M-0.51 87.88 C0.59 59.13, -0.86 29.44, -1.25 -1.01 M0.23 89.68 C-0.54 65.59, 0.54 40.74, -0.34 0.62" stroke="#000000" stroke-width="1" fill="none"></path></g><g stroke-linecap="round"><g stroke-opacity="0.2" fill-opacity="0.2" transform="translate(544.4515671191419 317.431640625) rotate(0 12.948744406905064 -9.521354008093454)"><path d="M0.5 -0.09 C4.71 -3.44, 20.2 -16.01, 24.19 -18.95 M-0.69 -1.19 C4.01 -3.87, 22.55 -14.63, 26.59 -17.72" stroke="#000000" stroke-width="1" fill="none"></path></g></g><g stroke-linecap="round"><g stroke-opacity="0.2" fill-opacity="0.2" transform="translate(569.5023483691419 300.431640625) rotate(0 13.782075463049125 15.786518234442951)"><path d="M-0.09 -0.59 C4.18 4.46, 22.09 25.54, 26.76 30.8 M-1.6 1.71 C2.97 6.89, 24.31 27.07, 29.16 32.17" stroke="#000000" stroke-width="1" fill="none"></path></g></g><g stroke-linecap="round"><g stroke-opacity="0.2" fill-opacity="0.2" transform="translate(587.3812546191419 316.771484375) rotate(0 10.265206569805741 -10.293713727202316)"><path d="M-0.59 -0.59 C2.84 -3.99, 17.47 -17.14, 21.12 -20.49 M1.29 1.71 C4.5 -2.04, 16.8 -18.2, 20 -22.3" stroke="#000000" stroke-width="1" fill="none"></path></g></g><g stroke-linecap="round"><g stroke-opacity="0.2" fill-opacity="0.2" transform="translate(609.5179733691419 296.322265625) rotate(0 10.264456092938758 7.8515973778442)"><path d="M-0.59 -0.33 C2.94 2.4, 17.54 12.88, 21.12 15.78 M1.29 -1.55 C4.73 1.42, 17.32 14.44, 20.5 17.26" stroke="#000000" stroke-width="1" fill="none"></path></g></g><g stroke-opacity="0.2" fill-opacity="0.2" stroke-linecap="round" transform="translate(574.4398483691419 270.041015625) rotate(0 13.498046875 13.498046875)"><path d="M13.52 -0.25 C16.33 -0.83, 20.11 0.43, 22.39 2.07 C24.68 3.72, 26.67 6.82, 27.24 9.6 C27.81 12.38, 27.26 16.07, 25.8 18.77 C24.34 21.46, 21.29 24.36, 18.48 25.77 C15.67 27.17, 11.61 27.98, 8.94 27.21 C6.28 26.44, 3.83 23.71, 2.48 21.16 C1.13 18.6, 0.51 14.69, 0.84 11.88 C1.17 9.08, 2.06 6.16, 4.44 4.31 C6.81 2.46, 13.01 1.39, 15.07 0.77 C17.14 0.14, 16.7 0.51, 16.82 0.57 M16.7 -0.73 C19.54 -0.14, 22.85 4.13, 24.75 6.65 C26.65 9.17, 28.32 11.98, 28.1 14.41 C27.89 16.84, 25.66 19.17, 23.45 21.25 C21.24 23.32, 17.68 26.06, 14.84 26.87 C12.01 27.68, 8.63 27.48, 6.43 26.12 C4.23 24.76, 2.6 21.89, 1.66 18.7 C0.73 15.52, -0.03 10.08, 0.8 7.02 C1.64 3.96, 4.27 1.67, 6.66 0.35 C9.05 -0.98, 13.64 -0.93, 15.15 -0.93 C16.67 -0.93, 15.7 0.05, 15.75 0.34" stroke="#000000" stroke-width="1" fill="none"></path></g><g stroke-opacity="0.2" fill-opacity="0.2" stroke-linecap="round" transform="translate(39.32559055664194 357.3408203125) rotate(0 40.5 58)"><path d="M-0.21 0.64 C22.26 1.03, 40.05 1.11, 79.7 1.17 M-0.28 -0.16 C16.62 1.51, 34.73 1.03, 81.74 0.04 M82.34 -0.94 C81.29 38.03, 81.17 73.55, 80.87 116.4 M81.97 0.74 C80.49 37.78, 79.34 75.3, 81 116.06 M80.76 114.12 C49.65 114.92, 18.11 114.93, -0.68 115.7 M80.68 115.16 C60.27 116.56, 38.13 115.64, -0.85 116.59 M-1.25 114.99 C-0.44 86.25, 1.96 56.46, 0.22 -0.87 M-0.34 116.62 C-0.56 77.83, -0.51 41.31, -0.1 0.35" stroke="#000000" stroke-width="1" fill="none"></path></g><g stroke-opacity="0.2" fill-opacity="0.2" transform="translate(44.32559055664194 402.8408203125) rotate(0 35.5 12.5)"><text x="35.5" y="18" font-family="Virgil, Segoe UI Emoji" font-size="20px" fill="#000000" text-anchor="middle" style="white-space: pre;" direction="ltr">3</text></g><g stroke-opacity="0.2" fill-opacity="0.2" stroke-linecap="round" transform="translate(120.06191868164194 358.1474609375) rotate(0 201.5 58)"><path d="M1.11 0.81 C141.14 0.14, 282.15 -0.06, 402.02 0.32 M-0.33 0.45 C85.91 0.55, 171.89 0.39, 403.08 0.39 M402.49 1.67 C403.15 35.19, 403.65 69.1, 403.52 114.63 M403.29 -0.05 C403.27 39.13, 404.13 79.03, 403.79 116.67 M402.62 115.08 C253.23 112.95, 104.82 113.7, -0.45 115.41 M403.17 116.37 C286.96 113.95, 171.33 114.43, -0.23 115.92 M-0.59 116.25 C2.53 86.86, 0.95 55.92, 0.48 1.31 M0.2 115.4 C0.65 86.18, 0.3 55.78, 0.27 0.33" stroke="#000000" stroke-width="1" fill="none"></path></g><g stroke-opacity="0.2" fill-opacity="0.2" transform="translate(125.06191868164194 391.1474609375) rotate(0 196.5 25)"><text x="196.5" y="18" font-family="Virgil, Segoe UI Emoji" font-size="20px" fill="#000000" text-anchor="middle" style="white-space: pre;" direction="ltr">officia porro iure quia iusto qui ipsa </text><text x="196.5" y="43" font-family="Virgil, Segoe UI Emoji" font-size="20px" fill="#000000" text-anchor="middle" style="white-space: pre;" direction="ltr">ut modi</text></g><g stroke-opacity="0.2" fill-opacity="0.2" stroke-linecap="round" transform="translate(525.3666061816419 358.4169921875) rotate(0 61.4296875 58.3046875)"><path d="M-0.53 1.52 C39.46 0.29, 79.77 -0.32, 121.11 -0.56 M0.31 0.32 C35.59 -0.95, 69.85 -0.3, 122.82 0.67 M122.23 0.84 C122.43 29.88, 123.08 57.59, 123.67 118.55 M122 -0.35 C123.2 43.72, 123.98 87.99, 123.55 116.49 M121.31 114.98 C96.9 115.3, 71.49 114.54, -0.26 115.97 M122.08 116.35 C95.5 118.01, 69.42 117.29, -0.45 115.98 M1.8 117.08 C0.57 86.62, 0.82 59.67, -0.78 -0.69 M0.25 117.07 C-0.34 74.72, 0.03 32.45, -0.67 0" stroke="#000000" stroke-width="1" fill="none"></path></g><g stroke-opacity="0.2" fill-opacity="0.2" stroke-linecap="round" transform="translate(541.7015671191419 372.126953125) rotate(0 44.048828125 44.78515625)"><path d="M1.52 -1.3 C36.28 -1.52, 70.78 -1.51, 87.54 -0.33 M0.32 0.74 C21.24 -0.14, 43.08 -0.31, 88.77 -0.47 M88.94 -0.13 C89.24 25.09, 87.47 49.95, 90.04 91.06 M87.75 0 C88.12 30.23, 88.73 59.59, 87.98 88.63 M86.46 88.89 C64.34 88.08, 40.13 88.63, -0.64 87.89 M87.84 88.72 C59.56 88.47, 29.7 88.43, -0.63 89.07 M0.47 89.79 C-0.98 65.83, 1.2 40.36, -0.69 1.24 M0.46 89.47 C0.89 61.14, 0.86 31.51, 0 0.74" stroke="#000000" stroke-width="1" fill="none"></path></g><g stroke-linecap="round"><g stroke-opacity="0.2" fill-opacity="0.2" transform="translate(543.0218796191419 432.568359375) rotate(0 12.708116994518775 -8.991666958648693)"><path d="M0.91 -0.78 C5.02 -3.96, 21.45 -16.3, 25.48 -19.41 M-0.07 1.42 C3.86 -1.62, 20.8 -15.08, 24.9 -18.42" stroke="#000000" stroke-width="1" fill="none"></path></g></g><g stroke-linecap="round"><g stroke-opacity="0.2" fill-opacity="0.2" transform="translate(568.0726608691419 415.568359375) rotate(0 13.843976764818649 15.749834827194036)"><path d="M-0.78 0.7 C3.66 5.8, 21.79 26.46, 26.31 31.47 M1.01 0.03 C5.83 4.66, 23.86 24.21, 28.47 29.53" stroke="#000000" stroke-width="1" fill="none"></path></g></g><g stroke-linecap="round"><g stroke-opacity="0.2" fill-opacity="0.2" transform="translate(585.9515671191419 431.908203125) rotate(0 10.703223685193791 -10.5699607597478)"><path d="M0.7 -1.05 C4.18 -4.61, 18.39 -18.78, 21.79 -22.15 M-0.39 1.01 C2.88 -2.37, 17.6 -17.65, 21.02 -21.16" stroke="#000000" stroke-width="1" fill="none"></path></g></g><g stroke-linecap="round"><g stroke-opacity="0.2" fill-opacity="0.2" transform="translate(608.0882858691419 411.458984375) rotate(0 10.288283008923713 8.200077532920886)"><path d="M-1.05 0.34 C2.32 2.82, 15.9 13.09, 19.46 15.57 M0.6 -0.53 C4.4 2.06, 18.49 14.15, 21.63 16.93" stroke="#000000" stroke-width="1" fill="none"></path></g></g><g stroke-opacity="0.2" fill-opacity="0.2" stroke-linecap="round" transform="translate(573.0101608691419 385.177734375) rotate(0 13.498046875 13.498046875)"><path d="M12.42 0.45 C15.2 0.11, 18.64 1.29, 20.97 2.79 C23.29 4.29, 25.42 6.84, 26.38 9.46 C27.34 12.08, 27.69 15.93, 26.71 18.51 C25.73 21.09, 23.22 23.44, 20.51 24.94 C17.8 26.45, 13.43 27.99, 10.44 27.54 C7.45 27.09, 4.3 24.62, 2.55 22.23 C0.8 19.85, -0.25 16.31, -0.06 13.23 C0.14 10.16, 1.6 5.82, 3.73 3.78 C5.85 1.75, 11.03 1.56, 12.69 1.02 C14.36 0.49, 13.77 0.65, 13.72 0.57 M12.33 1.21 C15.18 0.52, 19.22 0.43, 21.29 1.63 C23.36 2.82, 24.16 5.82, 24.77 8.37 C25.38 10.93, 25.91 14.24, 24.95 16.95 C23.99 19.67, 21.36 23.14, 19.02 24.68 C16.69 26.22, 13.71 26.64, 10.93 26.19 C8.16 25.74, 4.27 24.3, 2.37 21.98 C0.46 19.65, -0.69 14.93, -0.48 12.24 C-0.27 9.54, 1.87 7.88, 3.62 5.82 C5.36 3.75, 8.93 0.56, 9.98 -0.18 C11.03 -0.92, 9.8 1.1, 9.93 1.36" stroke="#000000" stroke-width="1" fill="none"></path></g><g stroke-opacity="0.2" fill-opacity="0.2" stroke-linecap="round" transform="translate(15.748442119141941 10.265625) rotate(0 329.8203125 274.041015625)"><path d="M0.65 0.25 C179.69 2.16, 358.9 1.68, 660.19 -0.03 M0.33 -0.13 C242.28 0.65, 484.3 0.78, 659.37 0.16 M659.6 -0.69 C660.99 217.56, 661.32 435.75, 660.18 548.64 M659.31 -0.31 C657.25 157.65, 657.52 315.4, 659.43 548.03 M660.17 547.45 C482.65 548.21, 306.54 548.56, -0.11 547.72 M659.69 548.44 C503.22 547.34, 346.44 547.4, 0.26 547.93 M-0.48 548.28 C-1 402.4, -1.08 257.09, 0.26 -0.53 M-0.13 547.9 C-1.73 383.54, -1.34 219.9, -0.22 -0.2" stroke="#000000" stroke-width="1" fill="none"></path></g><g stroke-opacity="0.2" fill-opacity="0.2" stroke-linecap="round" transform="translate(43.70547336914194 484.55078125) rotate(0 29 26.5)"><path d="M0.63 0.64 C17.93 -0.38, 33.18 0.92, 57.92 1.34 M-0.32 0.42 C14.6 -0.29, 29.59 -1.17, 58.4 0.97 M56.28 -0.7 C58.16 19.97, 59.73 41.03, 59.39 52.76 M57.23 -0.82 C57.48 10.76, 57.42 21.28, 57.87 52.68 M56.43 52.49 C43.79 54.56, 32.14 53.12, -0.9 51.75 M58.9 53.23 C43.63 52.64, 29.27 53.73, -0.39 52.66 M0.49 53.92 C-0.31 34.5, 0.44 15.26, -1.33 -0.01 M-0.44 52.74 C-0.65 33.88, 0.92 12.8, -0.5 -0.28" stroke="#000000" stroke-width="1" fill="none"></path></g><g stroke-opacity="0.2" fill-opacity="0.2" transform="translate(48.70547336914194 498.55078125) rotate(0 24 12.5)"><text x="24" y="18" font-family="Virgil, Segoe UI Emoji" font-size="20px" fill="#000000" text-anchor="middle" style="white-space: pre;" direction="ltr">&lt;&lt;</text></g><g stroke-opacity="0.2" fill-opacity="0.2" stroke-linecap="round" transform="translate(103.54922336914194 485.046875) rotate(0 25 26.5)"><path d="M1.48 0.09 C19.3 1.22, 37.99 1.18, 49.06 -0.51 M-0.06 0.2 C19.44 -0.9, 38.76 0.76, 50.74 0.29 M50 0.12 C51.12 16.99, 50.93 31.06, 48.12 52.33 M49.66 -0.15 C49.19 11.03, 49.46 22.79, 49.16 53.31 M48.31 54.18 C30.86 52.6, 12.48 51.62, -1.01 52.41 M50.11 52.57 C34.62 53.77, 18.37 52.77, 0.62 53.2 M-0.2 53.7 C0.41 40.93, -1.46 27.54, 1.48 -0.04 M-0.66 53.7 C1.14 38.21, -0.27 24.27, -0.39 -0.91" stroke="#000000" stroke-width="1" fill="none"></path></g><g stroke-opacity="0.2" fill-opacity="0.2" transform="translate(108.54922336914194 499.046875) rotate(0 20 12.5)"><text x="20" y="18" font-family="Virgil, Segoe UI Emoji" font-size="20px" fill="#000000" text-anchor="middle" style="white-space: pre;" direction="ltr">&lt;</text></g><g stroke-opacity="0.2" fill-opacity="0.2" stroke-linecap="round" transform="translate(156.30703586914194 485.82421875) rotate(0 27 26.5)"><path d="M0.27 1.38 C17.85 1.32, 34.91 -0.54, 55.67 -0.63 M0.26 -0.69 C18.87 0.86, 37.68 0.18, 53.95 -0.86 M55.57 1.34 C55.39 13.81, 52.12 27.42, 52.36 51.45 M53.6 -0.53 C53.69 11.25, 52.98 23.45, 54.66 52.22 M53.17 52.73 C38.28 52.06, 23.36 52.73, 0.25 54.8 M54.24 53.66 C36.15 52.42, 19.71 52.97, -0.6 53.25 M0.54 53.65 C-1.28 34.66, 1.53 16.3, -0.63 -0.89 M0.91 52.44 C-0.15 38.2, -0.04 23.03, -0.28 0.65" stroke="#000000" stroke-width="1" fill="none"></path></g><g stroke-opacity="0.2" fill-opacity="0.2" transform="translate(161.30703586914194 499.82421875) rotate(0 22 12.5)"><text x="22" y="18" font-family="Virgil, Segoe UI Emoji" font-size="20px" fill="#000000" text-anchor="middle" style="white-space: pre;" direction="ltr">1</text></g><g stroke-opacity="0.2" fill-opacity="0.2" stroke-linecap="round" transform="translate(212.18203586914194 485.65234375) rotate(0 26 26.5)"><path d="M-0.08 1.34 C14.89 -0.87, 33.34 -0.99, 52.84 -0.13 M0.4 0.97 C17.38 0.64, 33.23 -0.5, 51.65 0 M53.39 -0.24 C50.53 15.55, 50.78 30.91, 50.37 52.32 M51.87 -0.32 C50.94 15.42, 52.45 29.44, 51.74 52.15 M51.1 51.75 C32.32 52.34, 14.91 54.73, 0.47 53.22 M51.61 52.66 C39.27 53.54, 24.7 53.59, 0.46 52.9 M-1.33 52.99 C1.34 35.2, -0.77 16.6, -0.52 -1.33 M-0.5 52.72 C-0.87 32.45, -0.76 14.38, -0.1 0" stroke="#000000" stroke-width="1" fill="none"></path></g><g stroke-opacity="0.2" fill-opacity="0.2" transform="translate(217.18203586914194 499.65234375) rotate(0 21 12.5)"><text x="21" y="18" font-family="Virgil, Segoe UI Emoji" font-size="20px" fill="#000000" text-anchor="middle" style="white-space: pre;" direction="ltr">2</text></g><g stroke-opacity="0.2" fill-opacity="0.2" stroke-linecap="round" transform="translate(266.34219211914194 485.68359375) rotate(0 26 26.5)"><path d="M-0.94 -0.51 C20.87 -0.98, 39.24 -0.48, 52.4 0.52 M0.74 0.29 C11.98 -1.36, 23.71 -0.5, 52.06 0.79 M50.12 -0.67 C50.73 17.9, 50.74 38.23, 51.7 52.2 M51.16 0.31 C52.59 12.31, 51.67 25.35, 52.59 52.59 M50.99 52.41 C37.34 54.48, 22.66 52.89, -0.87 53.48 M52.62 53.2 C32.39 53.07, 14.45 52.72, 0.35 53.27 M1.48 52.96 C-0.28 34.48, -0.17 16.41, 1.41 1.82 M-0.39 52.09 C-0.01 40.72, 0.16 27.12, 0.46 0.98" stroke="#000000" stroke-width="1" fill="none"></path></g><g stroke-opacity="0.2" fill-opacity="0.2" transform="translate(271.34219211914194 499.68359375) rotate(0 21 12.5)"><text x="21" y="18" font-family="Virgil, Segoe UI Emoji" font-size="20px" fill="#000000" text-anchor="middle" style="white-space: pre;" direction="ltr">3</text></g><g stroke-opacity="0.2" fill-opacity="0.2" stroke-linecap="round" transform="translate(320.40078586914194 485.8203125) rotate(0 27.5 26.5)"><path d="M1.67 -0.63 C21.03 0.01, 40.77 0.66, 53.63 0.81 M-0.05 -0.86 C21.48 -0.16, 43.73 0.63, 55.67 0.69 M53.36 -1.55 C52.87 14.58, 54.2 29.71, 53.94 52.74 M55.66 -0.78 C54.3 13.36, 55.14 27.99, 54.87 52.55 M55.25 54.8 C42.42 53.06, 28.03 53.32, 1.31 52.22 M54.4 53.25 C40.85 53.01, 26.13 53.38, 0.33 52.33 M-0.63 52.11 C-0.91 35.79, 1.02 23.05, -1.12 -1.01 M-0.28 53.65 C0.1 38.56, 0.66 25.1, -0.34 0.58" stroke="#000000" stroke-width="1" fill="none"></path></g><g stroke-opacity="0.2" fill-opacity="0.2" transform="translate(325.40078586914194 499.8203125) rotate(0 22.5 12.5)"><text x="22.5" y="18" font-family="Virgil, Segoe UI Emoji" font-size="20px" fill="#000000" text-anchor="middle" style="white-space: pre;" direction="ltr">4</text></g><g stroke-opacity="0.2" fill-opacity="0.2" stroke-linecap="round" transform="translate(431.66641086914194 485.71875) rotate(0 26.5 26.5)"><path d="M0.84 -0.13 C14.94 0.69, 27.7 0.97, 54.94 1.49 M-0.35 0 C17.49 1.24, 35.52 1.15, 52.88 -0.94 M51.37 -0.68 C52.27 13.31, 51.51 27.96, 52.36 51.32 M52.74 -0.85 C53.94 17.11, 53.22 34.6, 52.37 52.5 M53.47 53.22 C37.8 53.96, 25.65 52.7, -0.69 54.24 M53.46 52.9 C36.37 53.4, 19.36 52.46, 0 53.74 M-0.52 51.67 C1.58 39.03, -0.95 20.42, -0.55 -0.77 M-0.1 53 C0.61 42.92, -0.2 31.47, 0.31 0.76" stroke="#000000" stroke-width="1" fill="none"></path></g><g stroke-opacity="0.2" fill-opacity="0.2" transform="translate(436.66641086914194 499.71875) rotate(0 21.5 12.5)"><text x="21.5" y="18" font-family="Virgil, Segoe UI Emoji" font-size="20px" fill="#000000" text-anchor="middle" style="white-space: pre;" direction="ltr">...</text></g><g stroke-opacity="0.2" fill-opacity="0.2" stroke-linecap="round" transform="translate(485.22891086914194 486.1015625) rotate(0 27 26.5)"><path d="M0.4 0.52 C13.12 0.84, 30.93 1.52, 54.57 -0.09 M0.06 0.79 C12.23 0.69, 23 -0.94, 53.66 -0.82 M53.7 -0.8 C52.51 11.54, 52.93 21.92, 54.61 54.32 M54.59 -0.41 C53.73 11.3, 53.24 22.99, 53.7 53.12 M53.13 53.48 C34.24 52.28, 11.18 54.3, 0.41 51.8 M54.35 53.27 C36.79 52.28, 18.93 53.68, -0.02 52.68 M1.41 54.82 C-0.98 38.45, -0.41 25.14, -1.83 -0.55 M0.46 53.98 C-0.29 34.22, 0.37 15.04, -0.53 -0.7" stroke="#000000" stroke-width="1" fill="none"></path></g><g stroke-opacity="0.2" fill-opacity="0.2" transform="translate(490.22891086914194 500.1015625) rotate(0 22 12.5)"><text x="22" y="18" font-family="Virgil, Segoe UI Emoji" font-size="20px" fill="#000000" text-anchor="middle" style="white-space: pre;" direction="ltr">50</text></g><g stroke-opacity="0.2" fill-opacity="0.2" stroke-linecap="round" transform="translate(537.9320358691419 486.28515625) rotate(0 27 26.5)"><path d="M-1.37 0.81 C17.79 1.35, 32.28 -0.23, 52.28 -0.7 M0.67 0.69 C16.09 -1.37, 32.09 -1.24, 53.23 -0.82 M52.94 -0.26 C53.28 12.42, 54.53 29.53, 52.43 52.49 M53.87 -0.45 C53.69 10.91, 54.02 22.95, 54.9 53.23 M55.31 52.22 C36.52 54.37, 20.82 51.93, 0.49 53.92 M54.33 52.33 C38.35 53.89, 22.68 52.83, -0.44 52.74 M-1.12 51.99 C-0.92 39.84, -2.2 27.68, 1.3 -0.21 M-0.34 53.58 C0.07 37.88, -0.77 20.54, -0.94 -0.35" stroke="#000000" stroke-width="1" fill="none"></path></g><g stroke-opacity="0.2" fill-opacity="0.2" transform="translate(542.9320358691419 500.28515625) rotate(0 22 12.5)"><text x="22" y="18" font-family="Virgil, Segoe UI Emoji" font-size="20px" fill="#000000" text-anchor="middle" style="white-space: pre;" direction="ltr">&gt;</text></g><g stroke-opacity="0.2" fill-opacity="0.2" stroke-linecap="round" transform="translate(593.3851608691419 485.58203125) rotate(0 26 26.5)"><path d="M1.94 1.49 C17.53 -0.3, 32.19 -0.91, 52 0.12 M-0.12 -0.94 C19.35 -1.18, 38.61 -1.18, 51.66 -0.15 M51.36 -1.68 C52.33 15.09, 50.15 27.02, 50.31 54.18 M51.37 -0.5 C51.63 13.83, 52.83 27.65, 52.11 52.57 M51.31 54.24 C35.56 51.6, 18.81 53.71, -0.2 53.7 M52 53.74 C34.97 52.34, 17.53 52.39, -0.66 53.7 M-0.55 52.23 C-1.53 31.73, 1.6 11.36, -0.01 0.92 M0.31 53.76 C-0.35 31.23, -0.75 10.5, -0.43 -0.26" stroke="#000000" stroke-width="1" fill="none"></path></g><g stroke-opacity="0.2" fill-opacity="0.2" transform="translate(598.3851608691419 499.58203125) rotate(0 21 12.5)"><text x="21" y="18" font-family="Virgil, Segoe UI Emoji" font-size="20px" fill="#000000" text-anchor="middle" style="white-space: pre;" direction="ltr">&gt;&gt;</text></g><g stroke-opacity="0.2" fill-opacity="0.2" stroke-linecap="round" transform="translate(375.26016086914194 485.50390625) rotate(0 27.5 26.5)"><path d="M0.57 -0.09 C17 -1.11, 37.45 -0.29, 56.57 1.34 M-0.34 -0.82 C19.55 -0.3, 40.3 0.37, 54.6 -0.53 M55.61 1.32 C53.26 14.69, 53.14 31.59, 54.17 52.73 M54.7 0.12 C55.57 13.76, 54.78 26.62, 55.24 53.66 M55.41 51.8 C41.14 54.26, 26.08 54.04, 0.54 53.65 M54.98 52.68 C41.72 53.15, 28.67 54.11, 0.91 52.44 M-1.83 52.45 C1.45 39.56, 0.14 27.46, 1.95 -0.68 M-0.53 52.3 C-1.1 33.69, -0.59 14.82, 0.67 -0.14" stroke="#000000" stroke-width="1" fill="none"></path></g><g stroke-opacity="0.2" fill-opacity="0.2" transform="translate(380.26016086914194 499.50390625) rotate(0 22.5 12.5)"><text x="22.5" y="18" font-family="Virgil, Segoe UI Emoji" font-size="20px" fill="#000000" text-anchor="middle" style="white-space: pre;" direction="ltr">5</text></g><g stroke-linecap="round" transform="translate(10 10) rotate(0 330.60635227539177 272.35546875)"><path d="M0 0 C0 0, 0 0, 0 0 M0 0 C0 0, 0 0, 0 0 M3.07 10.76 C4.17 9.04, 2.33 5.99, 8.6 0.12 M-0.31 12.81 C2.85 8.73, 8.64 2.25, 9.06 -1.03 M-1.54 22.35 C5.53 18.15, 13.3 12.6, 19.68 1.77 M2.07 24.66 C6.94 18.14, 12.07 7.19, 19.66 0.74 M-2.42 37.24 C6.55 31.15, 12.08 21.31, 29.36 1.37 M-2.01 38.25 C8.5 24.68, 16.76 14.78, 31.85 -0.35 M2.62 47.77 C13.93 37.66, 19.8 20.92, 39.84 -2.73 M-0.52 49.34 C8.57 40.57, 18.08 29.08, 41.06 0.7 M3.69 61.45 C23.48 40.8, 35.92 12.37, 54.36 -3.55 M0.43 58.97 C12.5 47.88, 23.07 34.26, 54.9 1.26 M-2.96 72.74 C16.49 60.88, 30 42.13, 63.46 1.73 M0.7 74.01 C17.28 57.53, 32.24 37.62, 64.34 0.25 M3.25 82.94 C20.9 59.37, 32.54 38.67, 75.94 2.9 M0.98 85.39 C23.42 56.67, 47.19 27.56, 73.25 1.56 M1.49 100.05 C25.1 67.26, 54.74 34.64, 81.7 -4.19 M-0.27 96.29 C25.58 65.41, 51.99 38.13, 86 -0.45 M-0.99 106.88 C32.38 69.3, 74.13 27.18, 98.63 -2.45 M-0.64 108.57 C33.29 70.87, 71.71 31.61, 96.99 -1.58 M2.07 120.75 C32.5 81.31, 75.92 33.18, 103.46 1.51 M-0.16 122.69 C39.93 78.73, 78.66 32.32, 106.21 -2.34 M-2.57 137.51 C33.79 94.19, 67.43 49.47, 118 1.31 M0.92 132.17 C38.41 93.95, 71.69 49.96, 116.2 0.28 M-1.4 147.5 C50.47 91.78, 97.4 29.98, 126.63 -1.13 M-1.01 147.76 C48.81 90.45, 95.53 36.8, 126.15 -0.81 M-0.02 155.77 C44.6 111.06, 86.52 60.05, 135.52 0.13 M-1.75 159.58 C37.94 111.57, 79.54 66.59, 137.59 1.08 M2.18 168.62 C57.56 103.86, 115.51 40.74, 145.26 -0.82 M1.53 170.08 C32.51 134.76, 62.65 99.38, 148.52 1.2 M-2.87 179.93 C45.99 128.71, 88.88 81.03, 157.58 1.27 M1.17 182.52 C46.29 135.01, 86.85 83.89, 158.61 -0.56 M2.54 195.8 C60.57 130.41, 112.47 70.23, 170.82 -2.72 M-0.35 195.19 C53.78 139.77, 104.18 82.38, 168.28 0.42 M-2.6 204.51 C52.23 145.32, 111.87 82.58, 179.63 2.75 M1.11 206.92 C63.94 133.2, 127.03 57.85, 179.89 -0.12 M-1.19 221.53 C53.46 157.23, 101.7 96.49, 189.76 2.14 M-0.49 220.35 C37.02 173, 75.12 131.17, 191.07 -0.76 M2.36 232.32 C42.32 181.65, 87.63 134.72, 203.81 -0.3 M-0.12 230.76 C57.52 163.03, 118.19 91.45, 202.38 1.34 M-1.93 245.5 C42.13 189.35, 94.69 132.77, 212.62 1.61 M0.04 245 C54.29 185.57, 105.39 125.87, 211.01 0.03 M2.49 256.16 C54.12 191.13, 109.58 131.64, 223.37 -1.1 M-0.86 256.39 C87.7 155.79, 174.44 55.52, 223.14 0.18 M1.08 268.95 C75.33 182.99, 148.64 97.09, 232.8 -2.03 M0.52 267.95 C61.78 202.01, 121.42 135.28, 233.93 1.15 M-0.4 279.2 C48.99 225.96, 98.27 170.5, 243.21 2.37 M0.08 279.98 C89.55 178.24, 176.51 77.88, 242.96 -0.08 M-1.59 294.96 C63.34 218.69, 125.8 147.97, 253.67 0.95 M0.62 292.04 C62.62 219.7, 124.86 150.57, 255.45 -0.49 M0.64 304.21 C84.95 204.68, 168.2 112.71, 264.47 1.93 M-0.12 305.75 C72.98 214.9, 150.96 125.7, 263.98 0.69 M0.25 318.95 C103.41 198.04, 206.17 78.1, 274.21 0.59 M1.14 317.17 C92.27 210.91, 183.29 104.6, 276.64 -1.11 M1.4 327.34 C96.86 216.55, 192.75 106.68, 287.68 -2.16 M1.01 329.59 C88.89 228.55, 172.54 129.95, 285.92 -0.6 M-0.56 341.96 C83.42 251.73, 162.76 158, 296.51 0.53 M-1.16 340.78 C62.58 269.99, 124.35 196.26, 297.14 0.33 M1.41 352.4 C78.87 259.39, 160.89 164.04, 307.42 1.2 M0.14 353.1 C74.34 263.54, 149.81 178.09, 307.9 -0.49 M-1.44 365.48 C127.15 223.06, 247.73 81.52, 319.05 0.3 M0.21 365.65 C95.15 262.17, 186.94 156.5, 318.34 0.4 M-0.42 377.07 C68.71 299.38, 137.08 220.67, 330.01 0.6 M0.02 378.19 C79.55 292.38, 156.52 203.83, 329.58 -0.94 M0.77 390.35 C114.44 257.41, 230.08 123.45, 340.02 -1.44 M0.33 389.74 C114.8 257.08, 229.22 124.17, 340.23 0.4 M1.16 401.21 C117.31 268.23, 236.68 133.44, 348.36 1.13 M-0.61 403 C110.23 277.78, 218.72 154.77, 349.68 0.41 M0.83 414.14 C89.76 309.88, 180.4 206.83, 361.03 1.53 M-0.54 414.76 C90.53 310.61, 180.55 207.47, 360.54 -0.01 M1.44 425.64 C123.1 286.95, 246.28 146.42, 370.39 -0.53 M-0.52 427.39 C133.84 271.24, 266.91 118.95, 370.53 -0.4 M-1.19 440.03 C152.81 261.88, 304.62 89.31, 381.27 -0.71 M-0.1 439.2 C111.43 312.59, 221 186.93, 381.28 0.01 M-1.27 453 C125.37 306.5, 247.45 167.34, 390.71 0.86 M-0.38 451.33 C84.72 358.39, 167.76 262.22, 391.98 -0.35 M-0.03 464.3 C150.6 291.39, 296.13 124.4, 401.88 0.74 M-0.79 462.89 C85.9 364.81, 173.05 265.69, 402.33 -0.04 M1.05 477.03 C136.06 316.72, 277.09 153.27, 414.06 1.5 M0.01 476.08 C143.47 315.91, 284.13 153.9, 413.2 0.38 M-0.75 487.95 C128.16 340.37, 257.42 190.15, 423.74 0.15 M-0.59 488.16 C169.23 300.81, 332.88 110.75, 423.28 0.52 M0.71 499.04 C129.63 351.63, 258.4 204.63, 433.84 0.54 M-0.44 499.14 C157.07 316.94, 315.9 135.9, 434.43 -0.07 M0.07 511.53 C120.1 371.52, 240.32 231.22, 445.2 -1.3 M-0.62 512.33 C112.25 378.31, 228.17 246.19, 445.2 0.29 M0.3 524.09 C98.1 415.04, 190.3 306.6, 456.15 1.62 M0.2 523.92 C152.46 348.17, 301.78 176.19, 456.17 0.38 M-1.29 537.07 C125.68 390.95, 253.59 244.27, 466.88 -0.27 M-0.73 536.82 C124.07 398.48, 245.21 259.28, 466.63 -0.17 M2.24 545.22 C155.08 375.09, 305.64 201.94, 475.75 -1.47 M2.12 546.44 C115.19 419.55, 229.13 287.59, 476.77 0.54 M13.05 547.88 C118.01 421.42, 226.47 298.14, 486.88 0.67 M12.41 546.11 C164.54 365.62, 319.58 186.76, 487.55 -0.78 M22.72 547.3 C124.49 428.91, 229.09 308.8, 496.87 -0.83 M23.24 545.57 C182.1 358.48, 341.93 176.06, 498.06 -0.03 M35.48 546.7 C133.81 430.53, 238.38 313.01, 508.77 1.09 M33.42 546.73 C221.96 334.18, 405.24 121.81, 508.61 0.48 M44.79 545.3 C202.37 366.82, 357.31 188.19, 518.83 -1.63 M45.15 546.08 C239.01 325.71, 428.79 108.46, 519.72 -0.23 M55.3 547.65 C154.59 430.73, 256.8 315.58, 530.41 1.09 M55.03 545.64 C177.78 411.73, 297.31 273.4, 530.34 0.39 M64.8 545.61 C248.77 328.16, 434.22 115.18, 540.81 -1.3 M65.11 545.57 C192.17 405.61, 313.7 264.58, 540.1 0.17 M76.58 546.81 C254.9 339.32, 433.97 129.79, 551.92 -0.31 M77.12 545.52 C232.2 362.51, 389.96 180.11, 550.71 -0.76 M87.78 547.14 C185.31 434.33, 281.65 324.97, 563.47 -0.77 M87.45 546.8 C218.87 393.33, 348.87 243.98, 561.81 -0.26 M97.84 547.11 C260.45 355.57, 425.44 165.47, 574.11 -0.37 M96.79 546.54 C251.77 366.14, 407.32 186.04, 572.36 0.06 M109.16 546.9 C235.93 399.22, 363.02 250.45, 583.51 1.12 M107.71 546.42 C232.06 404.41, 356.75 262.16, 582.26 0.13 M119.43 547.34 C281.22 362.97, 444.59 176.09, 592.97 0.13 M118.18 547.36 C273.16 366.63, 431.85 185.15, 593.14 0.59 M128.64 548.14 C292.95 352.46, 456.16 165.05, 604.23 -0.2 M128.84 547.12 C309.15 347.78, 483.26 146.26, 603.5 0.68 M137.99 545.09 C267.63 403.87, 390.28 260.91, 613.59 -1.32 M139.73 547.21 C297.69 366.99, 453.94 186.67, 614.32 0.63 M151.01 547.32 C299.68 371.53, 450.53 197.45, 623.67 0.68 M150.12 547.04 C334.6 335.78, 520.55 121.14, 625.87 0.53 M160.32 548.12 C350.8 328.85, 539.87 112.08, 634.93 0.36 M160.77 546.93 C302.27 383.49, 445.82 218.68, 635.89 0.98 M171.2 545.45 C309.7 387.55, 447.7 227.59, 645.2 1.74 M172.12 547.07 C295.28 401.74, 420.75 256.96, 646.64 -0.4 M181.89 547.91 C325.93 374.55, 472.7 205.05, 657.28 0.4 M181.72 547.29 C333.13 379.5, 481.41 207.79, 656.72 -0.37 M191.19 547.27 C342.47 371.07, 495.91 195.71, 666.23 2.11 M192.07 546.05 C364.47 350.1, 539.08 151.66, 665.49 3.15 M204.41 546.87 C371.86 354.04, 538.89 162.21, 663.71 14.47 M203.24 546.59 C310.28 428.82, 414.39 309.99, 664.86 14.8 M215.28 546.87 C342.27 395.8, 473.19 246.36, 665.46 29.27 M214.29 546.35 C312.93 435.5, 410.89 320.99, 664.61 27.46 M224.72 547.12 C390.99 353.94, 560.08 161.17, 665.25 38.39 M223.88 546.28 C394.77 350.19, 569.31 150.24, 664.3 40.68 M235.6 545.22 C325.15 446.59, 413.36 346.05, 663.97 51.36 M234.94 546.69 C398.01 359.72, 562.17 170.5, 665.74 52.8 M245.89 545.73 C406.63 354.19, 569.46 165.56, 663.81 64.8 M245.63 546.94 C396.49 372.08, 550.62 195.38, 664.32 63.28 M256.19 545.45 C383.54 398.66, 512.18 249.68, 663.96 75.61 M257.24 546.11 C407.47 374.23, 555.64 204.39, 664.92 76.41 M266.09 545.87 C381.67 412.41, 495.44 281.6, 664.29 89.36 M266.75 545.89 C417.15 370.06, 568.06 197.6, 665.14 88.27 M278.53 544.81 C358.65 452.86, 438.9 361.44, 664.32 100.97 M277.89 546.41 C393.35 414.61, 510.16 278.67, 664.87 101.05 M289.75 545.66 C420.82 394.43, 556.19 243.07, 663.66 113.23 M288.96 545.98 C383.33 430.98, 482.95 316.42, 665.47 112.2 M300.02 545.86 C399.62 425.5, 499.8 311.05, 664.16 123.87 M299.04 546.5 C407.59 418.36, 515.94 292.74, 664.94 125.55 M309.99 546.12 C433.28 398.71, 560.3 252.2, 664.02 137.15 M310.24 546.8 C429.06 408.57, 549 269.73, 665.14 136.64 M321.89 545.29 C420.91 429.41, 517.53 316.79, 666.27 148.28 M319.51 546.45 C413.62 437.5, 509.86 328.4, 665.32 149.29 M328.74 547.16 C410.45 452.3, 493.25 355.35, 663.34 160.81 M329.79 546.25 C440.39 421.98, 549.37 296.49, 664.6 161.9 M340.6 545.87 C406.79 473.12, 470.34 395.26, 664.7 174.88 M341.33 547.44 C443.19 431.77, 543.13 316.39, 665.06 173.38 M351.36 546.12 C432.4 454.71, 513.45 363.63, 665.46 185.27 M351.43 546.24 C423.1 463.99, 494.05 383.23, 664.51 185.52 M361.63 545.29 C463.06 431.7, 567.21 311.93, 664.11 198.33 M361.88 546.16 C459.26 438.59, 553.75 329.03, 664.66 198.89 M371.28 547.43 C488.68 417.28, 602.54 281.22, 664.02 210.54 M372.41 547.14 C445.87 467.17, 517.68 384.19, 665.52 209.99 M384.91 546.19 C451.99 472.11, 522.49 392.03, 664.78 222.44 M383.98 547.26 C481.48 428.62, 581.27 313.61, 664.26 223.12 M394.98 547.5 C491.15 435.77, 585.51 324.82, 666.74 233.66 M393.39 546.21 C465.28 465.47, 536.89 383.2, 665.07 234.64 M403.11 547.35 C508.68 431.96, 608.19 316.38, 664.67 247.68 M405.7 546.73 C489.77 448.07, 573.46 351.62, 664.48 247.3 M417.18 547.75 C480.31 478.94, 539.51 408.89, 666.45 261.23 M415.72 545.35 C507.88 438.39, 602.53 331.78, 665.05 259.47 M424.39 545.21 C492.07 470.28, 558.27 396.09, 664.89 272.83 M425.21 546.79 C486.66 475.36, 549.61 403.56, 664.65 271.88 M437.95 544.59 C527.39 443.6, 612.96 341.63, 664.83 282.13 M437.77 547.26 C519.96 456.18, 600.73 362.55, 665.69 283.36 M445.12 546.73 C522.67 459.75, 596.84 365.89, 664.55 294.73 M448 547.07 C503.75 480.43, 559.48 416.74, 664.65 295.09 M457.31 546.9 C534.1 465.86, 604.85 375.85, 664.95 310.63 M457.67 545.52 C533.81 457.9, 608.57 371.63, 664.92 308.54 M470.25 547.69 C526.19 482.73, 585.97 412.73, 662.7 317.47 M468.08 547.67 C535.91 469.03, 601.35 391.45, 663.86 320.2 M478.21 547.75 C543.23 464.64, 612.32 382.72, 663.04 333.95 M478.11 546.64 C526.84 487.93, 578.42 431.92, 665.81 331.53 M488.66 543.37 C544.22 478.83, 598.85 413.98, 664.44 342.55 M489.73 547.78 C556.52 472.75, 621.93 397.32, 665.38 343.26 M497.76 547.06 C545.8 496.96, 582.2 455.12, 661.8 355.51 M499.97 547.65 C556.8 488.01, 607.51 427.26, 663.74 358 M510.88 545.73 C549.12 498.48, 590.35 450.71, 668.16 368.81 M509.9 547.09 C568.3 482.55, 623.94 420.32, 664.13 369.97 M522.35 544.24 C557.77 504.2, 597.28 456.17, 663.87 383.83 M523.13 544.54 C560.45 499.77, 598.02 457.95, 664 379.58 M530.56 542.6 C572.75 507.09, 608.22 465.38, 661.19 393.86 M531.53 547.75 C582.01 491.96, 633.83 434.88, 665.54 394.81 M545.16 549.34 C585.13 503.59, 623.71 456.77, 663.06 404.7 M544.42 544.97 C572.78 514.39, 600.08 481.29, 663.95 404.56 M552.57 546.43 C599.97 498.05, 641.97 443.51, 664.54 418.27 M552.23 545.66 C599.56 493.27, 640.95 443.45, 666.86 418.59 M559.63 550.49 C603.47 498.26, 638.6 457.18, 663.71 430.71 M565.23 547.86 C589.45 517.75, 615.22 489.66, 666.22 428.44 M576.21 550.6 C603.02 510.67, 631.97 481.39, 661.18 441.36 M572.32 547.48 C596.86 518.76, 618.87 492.32, 665.92 443.48 M585.91 543.54 C611.18 517.16, 637.69 485.82, 665.11 452.87 M586.61 546.41 C612.4 516.41, 642.68 482.68, 664.02 453.53 M591.63 549.97 C612.83 526.43, 630.62 500.06, 662.17 466.86 M595.59 547 C619.94 515.6, 647.07 487.81, 666.41 464.77 M605.74 550.2 C622.24 525.71, 637.53 509.05, 663.06 476.02 M606.05 548.17 C619.97 530.94, 634.22 516.43, 665 478.18 M612.95 543.41 C631.9 530.54, 646.35 506.56, 668.7 488.02 M615.61 546.94 C630.24 526.72, 646.49 512.02, 666.6 489.73 M625.22 546.73 C643.63 532.13, 653.3 513.89, 664.45 505.35 M626.34 545.78 C637.38 535.5, 645.32 528.89, 663.86 504.58 M636.59 550.36 C646.52 541.81, 654.36 529.41, 661.63 513.45 M636.27 546.12 C646.75 537.76, 653.13 529.26, 663.42 517.47 M646.12 548.71 C652.86 540.56, 655.36 534.37, 664.45 528.34 M648.96 547.73 C653.89 539.99, 660.17 533.64, 665.58 526.74 M659.84 545.16 C662.16 543.83, 662.44 543.9, 664.35 538.38 M660.03 546.36 C661.55 545.27, 662.05 543.82, 664.77 539.25" stroke="#ced4da" stroke-width="1" fill="none"></path><path d="M1.01 1.36 C255.05 0.67, 509.19 0.27, 662.75 -0.88 M0.06 -0.12 C235.9 -3.24, 469.49 -3.22, 661.62 0.39 M661.15 1.24 C665.89 145.68, 666.61 289.72, 661.1 545.39 M661.75 -0.33 C660.82 110.76, 660.64 220.13, 661.77 545.49 M662.8 543.72 C527.52 545.64, 394.76 547.96, -0.54 545.28 M661.11 545.41 C470.35 544.66, 280.23 544.97, 0.01 545.09 M0.45 543.43 C2.29 416.92, 1.23 289.19, 0.02 1.03 M0.38 543.97 C3.58 398.29, 3.9 249.74, 0.49 -0.7" stroke="#000000" stroke-width="2" fill="none"></path></g><g stroke-linecap="round" transform="translate(111.04849094726694 77.13114577371857) rotate(0 229.68838352539194 199.4344271131407)"><path d="M-1.75 1.12 L460.32 -0.84 L457.43 397.12 L0.18 400.82" stroke="none" stroke-width="0" fill="#eee"></path><path d="M0.07 -0.58 C134.07 2.46, 268.79 1.68, 459.73 -0.17 M0.07 -0.27 C162.11 0.96, 324.41 0.72, 458.96 0.08 M459.39 0.93 C456.44 115.23, 458.34 228.7, 459.36 399.6 M459.09 -0.46 C459.12 114.67, 459.07 230.2, 458.82 399.19 M459.05 399.3 C306.73 397.59, 155.59 398.47, -0.13 398.47 M459.18 399.06 C339.43 397.61, 220.28 398.33, -0.24 398.97 M-0.84 399.6 C0.86 281.05, 0.1 162.8, 0.24 -0.38 M0.23 399.14 C-1.33 245.42, -1.28 91.79, 0.43 -0.05" stroke="#000000" stroke-width="1" fill="none"></path></g><g stroke-linecap="round" transform="translate(206.89618547202656 160.87757736343042) rotate(0 127.28997337385272 129.4177754384092)"><path d="M-1.01 -0.45 C92.54 0.07, 182.31 0.44, 254.28 0.87 M-0.47 -0.53 C66.13 -1.06, 132.12 -1.04, 254.72 -0.11 M255.9 -1.38 C256.78 56.53, 255.85 110.41, 255.61 258.65 M253.93 -0.5 C255.55 78.18, 256.31 156.72, 255.04 259.08 M255.33 257.84 C182.67 258.71, 113.46 257.89, -0.69 258.19 M254.91 258.29 C187.12 258.24, 121.37 257.56, 0.18 258.8 M1.03 259.22 C-1.92 187.16, -2.48 117.2, -0.53 1.37 M0.38 258.24 C-0.87 170.34, -0.8 83.5, -0.07 -0.7" stroke="#000000" stroke-width="1" fill="none"></path></g><g stroke-linecap="round"><g transform="translate(210.7115546912313 335.53795585087096) rotate(0 35.95520235108114 -26.601318286483206)"><path d="M-0.75 -0.33 C11.51 -9.16, 60.59 -44.16, 72.66 -52.87 M1.06 -1.55 C13.33 -10.17, 60.62 -42.39, 72.26 -51.25" stroke="#000000" stroke-width="1" fill="none"></path></g></g><g stroke-linecap="round"><g transform="translate(283.10197718460404 286.4122551349567) rotate(0 39.45085031167207 46.07074386699583)"><path d="M-0.33 1.05 C12.86 16.18, 65.93 75.24, 79.23 90.03 M1.7 0.55 C14.74 15.96, 65.49 76.52, 78.37 91.59" stroke="#000000" stroke-width="1" fill="none"></path></g></g><g stroke-linecap="round"><g transform="translate(334.76749468845037 333.6302712412687) rotate(0 31.096742446625285 -31.128848239069498)"><path d="M1.05 0.17 C11.52 -9.86, 51.93 -50.45, 62.05 -60.54 M0.14 -0.79 C10.52 -11.16, 51 -52.17, 61.13 -62.43" stroke="#000000" stroke-width="1" fill="none"></path></g></g><g stroke-linecap="round"><g transform="translate(398.73701352050136 274.5372006420473) rotate(0 29.261461760615816 23.094546287161847)"><path d="M0.17 0.05 C10.18 7.5, 49.76 38.17, 59.72 45.74 M-1.2 -0.97 C8.72 7.18, 48.89 39.24, 59.01 47.16" stroke="#000000" stroke-width="1" fill="none"></path></g></g><g stroke-linecap="round" transform="translate(297.3701034954762 198.5910346455696) rotate(0 39.00594182533126 39.005941825331206)"><path d="M34.85 0.33 C41.84 -0.92, 51.71 1.08, 58.32 4.8 C64.92 8.52, 71.48 15.66, 74.46 22.64 C77.44 29.62, 77.77 39.08, 76.18 46.67 C74.59 54.25, 70.67 62.91, 64.94 68.15 C59.2 73.4, 49.4 77.29, 41.77 78.16 C34.13 79.03, 25.7 77.17, 19.13 73.38 C12.56 69.59, 5.23 62.51, 2.33 55.42 C-0.56 48.33, -0.05 38.35, 1.77 30.84 C3.58 23.33, 6.59 15.48, 13.23 10.36 C19.87 5.24, 35.74 1.65, 41.63 0.14 C47.52 -1.37, 48.71 0.79, 48.55 1.32 M26.53 2.44 C33.6 -0.26, 45.19 -0.4, 52.56 1.93 C59.94 4.27, 66.42 10.24, 70.77 16.45 C75.13 22.66, 79.02 31.36, 78.69 39.18 C78.37 47, 73.54 57.19, 68.82 63.37 C64.09 69.54, 57.6 74.25, 50.34 76.21 C43.09 78.18, 32.62 77.8, 25.27 75.16 C17.93 72.51, 10.58 66.45, 6.27 60.34 C1.95 54.23, -0.75 46.18, -0.62 38.51 C-0.48 30.85, 2.24 20.26, 7.09 14.35 C11.94 8.44, 25.1 5.01, 28.5 3.06 C31.9 1.11, 27.38 2.35, 27.47 2.66" stroke="#000000" stroke-width="1" fill="none"></path></g><g stroke-linecap="round" transform="translate(527.7626022753919 94.90625) rotate(0 16.143292682926813 16.546875)"><path d="M3.12 6.15 C5.04 3.58, 8.51 0.99, 12.11 0.4 C15.71 -0.18, 21.76 0.82, 24.73 2.64 C27.69 4.47, 28.61 8.21, 29.91 11.37 C31.2 14.53, 33.44 18.43, 32.48 21.58 C31.52 24.72, 27.06 28.42, 24.14 30.23 C21.22 32.03, 18.1 32.94, 14.94 32.42 C11.79 31.9, 7.95 29.28, 5.2 27.08 C2.44 24.89, -2.3 23.42, -1.59 19.25 C-0.88 15.08, 6.49 5.42, 9.44 2.07 C12.4 -1.28, 16.12 -0.87, 16.15 -0.83 M24.8 2.14 C27.21 4.27, 28.44 10.11, 29.23 12.96 C30.02 15.81, 30.27 16.25, 29.55 19.26 C28.82 22.27, 27.93 28.67, 24.88 31.04 C21.84 33.4, 14.3 34.17, 11.28 33.47 C8.25 32.77, 8.55 29.08, 6.73 26.83 C4.9 24.59, 1.34 23.27, 0.34 20.01 C-0.66 16.74, -0.98 10.44, 0.74 7.25 C2.47 4.07, 6.76 1.95, 10.7 0.91 C14.64 -0.14, 22.6 0.68, 24.39 0.97 C26.18 1.26, 21.34 2.32, 21.45 2.67" stroke="#000000" stroke-width="2" fill="none"></path></g><g transform="translate(532.7626022753919 100.953125) rotate(0 11.143292682926813 10.5)"><text x="11.143292682926827" y="15" font-family="Virgil, Segoe UI Emoji" font-size="16.50858175248419px" fill="#000000" text-anchor="middle" style="white-space: pre;" direction="ltr">X</text></g></svg>